<svg width="482" height="444" viewBox="0 0 482 444" fill="none" xmlns="http://www.w3.org/2000/svg">
<g clip-path="url(#clip0_172_8945)">
<path d="M195.26 143.033C194.204 143.736 202.853 166.709 162.228 183.265C121.602 199.821 154.845 228.326 126.884 237.285C98.9221 246.244 95.937 291.204 144.292 289.496C192.647 287.787 205.532 256.172 229.011 254.785C289.055 251.233 300.528 223.567 299.196 179.451" fill="#232846"/>
<path d="M240.429 263.523C240.429 263.523 222.372 237.471 181.224 269.287C140.076 301.103 125.828 312.177 125.828 312.177C125.828 312.177 82.5644 237.275 78.343 213.006L46.1802 216.287C46.1802 216.287 46.6827 325.13 84.67 359.418C122.657 393.706 173.801 362.815 209.17 330.11" fill="#8B6FFE"/>
<path d="M68.634 222.045C68.634 222.045 48.8388 235.642 46.1602 222.045C43.4817 208.448 41.9037 201.766 39.0894 197.369C36.2752 192.972 22.209 181.366 27.3048 179.607C32.4006 177.848 44.0144 187.345 44.0144 187.345C44.0144 187.345 35.7475 174.331 35.5716 167.824C35.3957 161.317 44.7179 166.945 50.3464 181.717C50.3464 181.717 39.6171 163.604 43.4867 160.614C47.3563 157.624 56.2764 170.578 56.7689 177.14C56.7689 177.14 54.7588 159.554 60.0204 158.152C65.282 156.75 68.433 175.03 69.4129 186.109C70.3929 197.188 69.4129 203.866 69.4129 203.866" fill="#FFC1AB"/>
<path d="M1.89595 197.389L44.7328 189.822C45.1303 189.754 45.5392 189.83 45.8851 190.037C46.2309 190.245 46.4908 190.57 46.6174 190.953L53.07 210.609C53.1754 210.931 53.3758 211.213 53.6449 211.418C53.9139 211.623 54.2389 211.742 54.5769 211.759C54.9149 211.776 55.2501 211.69 55.5383 211.512C55.8264 211.335 56.054 211.074 56.1908 210.765L66.1764 188.274C66.3406 187.901 66.6355 187.601 67.0057 187.43C67.3758 187.258 67.7958 187.228 68.1866 187.345L91.9318 194.148C92.3318 194.26 92.7592 194.219 93.1307 194.033C93.5022 193.848 93.7914 193.53 93.942 193.143L133.919 84.5561C134.046 84.2082 134.054 83.828 133.943 83.4749C133.831 83.1218 133.605 82.8155 133.301 82.6039C132.997 82.3923 132.632 82.2871 132.262 82.3049C131.892 82.3226 131.538 82.4623 131.256 82.702C109.576 101.273 22.0882 176.205 0.518979 194.465C0.237739 194.703 0.0428261 195.027 -0.0355381 195.386C-0.113902 195.746 -0.0713403 196.122 0.0855498 196.455C0.24244 196.788 0.504892 197.06 0.832214 197.229C1.15954 197.398 1.53344 197.454 1.89595 197.389Z" fill="#F3C75F"/>
<path d="M301.347 399.801L316.338 408.494C321.656 419.71 325.378 431.615 327.394 443.862H185.415C185.415 443.862 188.023 424.99 206.874 408.494" fill="#634972"/>
<path d="M285.391 254.841C285.3 254.805 285.203 254.786 285.105 254.786H242.469C242.367 254.786 242.266 254.806 242.172 254.846L213.341 267.262C195.727 274.849 186.104 293.983 190.295 311.74L202.894 365.066C205.854 377.628 205.874 389.717 203.165 401.359L202.326 404.977C202.195 405.539 202.192 406.124 202.319 406.688C202.446 407.252 202.699 407.779 203.059 408.231C203.418 408.684 203.875 409.049 204.396 409.3C204.916 409.55 205.487 409.68 206.065 409.68H320.574C320.684 409.68 320.792 409.656 320.891 409.61C320.99 409.564 321.078 409.496 321.148 409.412C321.218 409.328 321.269 409.23 321.296 409.124C321.324 409.018 321.328 408.908 321.308 408.8L320.258 403.173C317.157 386.568 318.69 369.43 324.69 353.64L326.198 349.676C333.039 331.664 332.607 311.699 324.992 294.001C317.376 276.302 303.175 262.259 285.391 254.841Z" fill="#8B6FFE"/>
<path d="M286.135 263.523H240.429L243.901 196.193L288.06 189.365L286.135 263.523Z" fill="#FFC1AB"/>
<path d="M286.135 263.523H240.429L243.901 196.193L288.06 189.365L286.135 263.523Z" fill="#FFC1AB"/>
<path d="M287.994 191.716L249.213 195.515L243.901 196.183L243.479 205.127L242.801 219.367L242.735 220.804C246.512 224.154 250.85 226.81 255.55 228.652C264.033 231.964 274.194 232.039 288.055 230.592L287.994 191.716Z" fill="#232846"/>
<path d="M291.929 185.089L294.538 148.093C295.099 140.13 293.554 132.16 290.058 124.984C286.562 117.808 281.238 111.679 274.622 107.212C268.007 102.744 260.331 100.097 252.368 99.5358C244.404 98.9748 236.434 100.52 229.257 104.017C222.079 107.511 215.947 112.833 211.479 119.448C207.011 126.064 204.364 133.738 203.803 141.701L201.547 175.869C200.471 191.174 207.286 208.705 220.005 217.292C226.989 222.007 235.091 224.802 243.497 225.393C251.903 225.985 260.317 224.354 267.893 220.663C274.669 217.364 280.458 212.34 284.677 206.095C288.897 199.851 291.398 192.606 291.929 185.089Z" fill="#FFC1AB"/>
<path d="M190.521 151.881C203.396 148.821 244.997 138.094 257.465 124.653C257.728 124.372 258.053 124.158 258.415 124.028C258.777 123.898 259.164 123.856 259.546 123.905C259.927 123.954 260.291 124.093 260.608 124.31C260.925 124.528 261.186 124.817 261.37 125.155C264.505 130.873 271.471 142.455 279.175 148.022C286.954 153.645 289.346 162.192 290.06 166.201C290.134 166.65 290.336 167.068 290.64 167.405C290.945 167.743 291.34 167.986 291.779 168.106C292.447 168.282 293.06 169.111 292.879 171.623C292.532 176.572 292.04 190.973 288.306 199.635C288.15 200.005 288.088 200.408 288.126 200.808C288.163 201.208 288.3 201.592 288.522 201.927C288.745 202.261 289.046 202.535 289.401 202.725C289.755 202.914 290.151 203.013 290.552 203.012C291.047 203.012 291.531 202.862 291.938 202.581C292.346 202.3 292.658 201.902 292.834 201.439C296.854 190.827 318.067 129.376 276.632 108.644C276.4 108.528 276.188 108.375 276.004 108.192C273.491 105.68 252.887 86.4655 223.041 104.459C198.265 119.397 190.048 140.274 187.616 148.846C187.499 149.255 187.491 149.687 187.593 150.099C187.695 150.512 187.903 150.89 188.197 151.197C188.491 151.505 188.86 151.729 189.268 151.849C189.676 151.969 190.108 151.98 190.521 151.881Z" fill="#232846"/>
<path d="M202.547 174.633C201.878 178.336 204.964 185.576 209.412 186.38C211.389 186.74 213.429 186.31 215.093 185.182C216.757 184.055 217.913 182.32 218.312 180.351C218.975 176.647 215.799 173.698 211.331 172.899C206.864 172.1 203.215 170.94 202.547 174.633Z" fill="#FFACA1"/>
<path d="M284.813 177.678C285.527 181.647 281.848 186.39 277.079 187.224C274.958 187.616 272.767 187.158 270.981 185.949C269.195 184.74 267.955 182.877 267.531 180.763C266.817 176.793 270.239 173.638 275.009 172.779C279.778 171.919 284.1 173.708 284.813 177.678Z" fill="#FFACA1"/>
<path d="M269.104 169.106C273.852 169.163 278.535 168.004 282.708 165.739C281.165 163.568 279.125 161.797 276.758 160.575C274.391 159.353 271.765 158.715 269.101 158.715C266.437 158.715 263.812 159.353 261.445 160.575C259.078 161.797 257.038 163.568 255.495 165.739C259.67 168.004 264.355 169.163 269.104 169.106Z" fill="white"/>
<path d="M282.708 165.744C281.021 163.73 278.929 162.095 276.567 160.946C274.237 159.828 271.686 159.247 269.101 159.247C266.517 159.247 263.966 159.828 261.636 160.946C259.275 162.096 257.182 163.731 255.495 165.744C256.896 163.426 258.885 161.52 261.259 160.217C262.452 159.558 263.724 159.051 265.043 158.71C266.372 158.38 267.735 158.211 269.104 158.207C271.845 158.203 274.542 158.895 276.944 160.217C279.318 161.52 281.307 163.426 282.708 165.744Z" fill="#232846"/>
<path d="M214.764 169.105C219.511 169.164 224.195 168.005 228.368 165.739C226.825 163.567 224.786 161.797 222.419 160.575C220.052 159.353 217.427 158.715 214.764 158.715C212.1 158.715 209.475 159.353 207.108 160.575C204.742 161.797 202.702 163.567 201.16 165.739C205.332 168.005 210.016 169.164 214.764 169.105Z" fill="white"/>
<path d="M228.368 165.744C226.683 163.73 224.592 162.095 222.231 160.946C219.902 159.828 217.35 159.247 214.766 159.247C212.182 159.247 209.631 159.828 207.301 160.946C204.939 162.095 202.846 163.73 201.16 165.744C202.559 163.427 204.546 161.52 206.919 160.217C208.113 159.557 209.387 159.05 210.708 158.71C212.035 158.379 213.397 158.211 214.764 158.207C217.506 158.204 220.205 158.896 222.608 160.217C224.982 161.52 226.968 163.427 228.368 165.744Z" fill="#232846"/>
<path d="M238.946 156.936C235.73 159.177 235.473 163.578 234.463 167.106C233.363 170.95 231.569 175.351 233.785 179.044C235.292 181.582 239.077 182.235 241.192 179.994C244.082 176.939 243.625 172.331 243.615 168.347C243.615 164.724 243.906 159.765 240.986 157.197C240.72 156.939 240.377 156.775 240.01 156.728C239.642 156.681 239.269 156.754 238.946 156.936Z" fill="#ECA890"/>
<path d="M209.17 174.864C209.243 174.854 209.31 174.819 209.358 174.764C209.406 174.709 209.433 174.638 209.433 174.565C209.433 174.492 209.406 174.421 209.358 174.366C209.31 174.311 209.243 174.275 209.17 174.266C209.098 174.275 209.031 174.311 208.983 174.366C208.934 174.421 208.908 174.492 208.908 174.565C208.908 174.638 208.934 174.709 208.983 174.764C209.031 174.819 209.098 174.854 209.17 174.864Z" fill="#EA7971"/>
<path d="M214.266 174.592C214.339 174.592 214.41 174.563 214.462 174.512C214.513 174.46 214.543 174.389 214.543 174.316C214.543 174.243 214.513 174.173 214.462 174.121C214.41 174.069 214.339 174.04 214.266 174.04C214.193 174.04 214.123 174.069 214.071 174.121C214.019 174.173 213.99 174.243 213.99 174.316C213.99 174.389 214.019 174.46 214.071 174.512C214.123 174.563 214.193 174.592 214.266 174.592Z" fill="#EA7971"/>
<path d="M211.658 178.682C211.722 178.674 211.78 178.642 211.822 178.594C211.865 178.545 211.888 178.483 211.888 178.419C211.888 178.354 211.865 178.292 211.822 178.244C211.78 178.195 211.722 178.164 211.658 178.155C211.594 178.164 211.536 178.195 211.494 178.244C211.451 178.292 211.428 178.354 211.428 178.419C211.428 178.483 211.451 178.545 211.494 178.594C211.536 178.642 211.594 178.674 211.658 178.682Z" fill="#EA7971"/>
<path d="M217.126 178.376C217.18 178.376 217.233 178.354 217.271 178.316C217.31 178.277 217.332 178.225 217.332 178.17C217.332 178.115 217.31 178.063 217.271 178.024C217.233 177.986 217.18 177.964 217.126 177.964C217.071 177.964 217.019 177.986 216.98 178.024C216.941 178.063 216.92 178.115 216.92 178.17C216.92 178.225 216.941 178.277 216.98 178.316C217.019 178.354 217.071 178.376 217.126 178.376Z" fill="#EA7971"/>
<path d="M207.04 179.687L207.16 179.662C207.24 179.638 207.31 179.588 207.36 179.52C207.409 179.453 207.436 179.372 207.436 179.288C207.436 179.204 207.409 179.123 207.36 179.055C207.31 178.988 207.24 178.938 207.16 178.914H207.04C206.981 178.902 206.92 178.904 206.862 178.919C206.803 178.933 206.749 178.961 206.703 178.999C206.656 179.037 206.619 179.085 206.593 179.139C206.568 179.194 206.555 179.253 206.555 179.313C206.555 179.373 206.568 179.432 206.593 179.487C206.619 179.541 206.656 179.589 206.703 179.627C206.749 179.665 206.803 179.693 206.862 179.708C206.92 179.722 206.981 179.724 207.04 179.713V179.687Z" fill="#EA7971"/>
<path d="M210.909 183.501C210.972 183.501 211.032 183.476 211.076 183.432C211.12 183.388 211.145 183.328 211.145 183.265C211.145 183.202 211.12 183.142 211.076 183.098C211.032 183.054 210.972 183.029 210.909 183.029C210.847 183.029 210.786 183.054 210.742 183.098C210.698 183.142 210.673 183.202 210.673 183.265C210.673 183.328 210.698 183.388 210.742 183.432C210.786 183.476 210.847 183.501 210.909 183.501Z" fill="#EA7971"/>
<path d="M214.764 182.823C214.806 182.816 214.844 182.794 214.872 182.761C214.899 182.729 214.915 182.687 214.915 182.644C214.915 182.602 214.899 182.56 214.872 182.528C214.844 182.495 214.806 182.473 214.764 182.466C214.721 182.473 214.683 182.495 214.656 182.528C214.628 182.56 214.613 182.602 214.613 182.644C214.613 182.687 214.628 182.729 214.656 182.761C214.683 182.794 214.721 182.816 214.764 182.823Z" fill="#EA7971"/>
<path d="M221.613 177.497L221.568 177.396C221.552 177.37 221.529 177.349 221.502 177.334C221.476 177.319 221.446 177.311 221.415 177.311C221.384 177.311 221.354 177.319 221.327 177.334C221.3 177.349 221.278 177.37 221.262 177.396L221.216 177.497C221.015 177.924 221.809 177.924 221.613 177.497Z" fill="#EA7971"/>
<path d="M218.99 181.531C219.048 181.52 219.1 181.488 219.138 181.443C219.175 181.397 219.196 181.339 219.196 181.28C219.196 181.221 219.175 181.164 219.138 181.118C219.1 181.072 219.048 181.041 218.99 181.029C218.932 181.041 218.88 181.072 218.842 181.118C218.805 181.164 218.784 181.221 218.784 181.28C218.784 181.339 218.805 181.397 218.842 181.443C218.88 181.488 218.932 181.52 218.99 181.531Z" fill="#EA7971"/>
<path d="M220.307 173.894L220.362 173.829C220.396 173.792 220.414 173.745 220.414 173.696C220.414 173.646 220.396 173.599 220.362 173.562L220.307 173.497C220.267 173.458 220.217 173.431 220.163 173.42C220.108 173.409 220.051 173.414 220 173.435C219.948 173.457 219.904 173.493 219.873 173.539C219.842 173.585 219.826 173.64 219.826 173.696C219.826 173.751 219.842 173.806 219.873 173.852C219.904 173.898 219.948 173.934 220 173.956C220.051 173.977 220.108 173.982 220.163 173.971C220.217 173.96 220.267 173.934 220.307 173.894Z" fill="#EA7971"/>
<path d="M266.109 179.376L266.229 179.351C266.309 179.326 266.379 179.276 266.429 179.209C266.478 179.142 266.505 179.06 266.505 178.976C266.505 178.893 266.478 178.811 266.429 178.744C266.379 178.677 266.309 178.627 266.229 178.602H266.109C266.049 178.589 265.987 178.589 265.928 178.602C265.868 178.616 265.812 178.643 265.765 178.681C265.717 178.719 265.678 178.768 265.652 178.823C265.625 178.878 265.612 178.938 265.612 178.999C265.612 179.06 265.625 179.12 265.652 179.175C265.678 179.231 265.717 179.279 265.765 179.317C265.812 179.355 265.868 179.382 265.928 179.396C265.987 179.409 266.049 179.409 266.109 179.396V179.376Z" fill="#EA7971"/>
<path d="M268.24 174.557C268.319 174.557 268.396 174.526 268.453 174.469C268.509 174.412 268.541 174.336 268.541 174.256C268.541 174.176 268.509 174.099 268.453 174.043C268.396 173.986 268.319 173.954 268.24 173.954C268.16 173.954 268.083 173.986 268.026 174.043C267.97 174.099 267.938 174.176 267.938 174.256C267.938 174.336 267.97 174.412 268.026 174.469C268.083 174.526 268.16 174.557 268.24 174.557Z" fill="#EA7971"/>
<path d="M273.335 174.281C273.409 174.281 273.479 174.252 273.531 174.2C273.583 174.148 273.612 174.078 273.612 174.005C273.612 173.931 273.583 173.861 273.531 173.809C273.479 173.757 273.409 173.728 273.335 173.728C273.262 173.728 273.192 173.757 273.14 173.809C273.088 173.861 273.059 173.931 273.059 174.005C273.059 174.078 273.088 174.148 273.14 174.2C273.192 174.252 273.262 174.281 273.335 174.281Z" fill="#EA7971"/>
<path d="M270.722 178.371C270.786 178.362 270.844 178.331 270.886 178.282C270.929 178.234 270.952 178.171 270.952 178.107C270.952 178.043 270.929 177.981 270.886 177.932C270.844 177.884 270.786 177.852 270.722 177.843C270.658 177.852 270.6 177.884 270.558 177.932C270.515 177.981 270.492 178.043 270.492 178.107C270.492 178.171 270.515 178.234 270.558 178.282C270.6 178.331 270.658 178.362 270.722 178.371Z" fill="#EA7971"/>
<path d="M276.195 178.064C276.249 178.064 276.302 178.043 276.34 178.004C276.379 177.965 276.401 177.913 276.401 177.858C276.401 177.804 276.379 177.751 276.34 177.713C276.302 177.674 276.249 177.652 276.195 177.652C276.14 177.652 276.088 177.674 276.049 177.713C276.01 177.751 275.989 177.804 275.989 177.858C275.989 177.913 276.01 177.965 276.049 178.004C276.088 178.043 276.14 178.064 276.195 178.064Z" fill="#EA7971"/>
<path d="M269.978 183.175C270.041 183.175 270.101 183.15 270.145 183.105C270.19 183.061 270.214 183.001 270.214 182.938C270.214 182.876 270.19 182.816 270.145 182.771C270.101 182.727 270.041 182.702 269.978 182.702C269.916 182.702 269.856 182.727 269.811 182.771C269.767 182.816 269.742 182.876 269.742 182.938C269.742 183.001 269.767 183.061 269.811 183.105C269.856 183.15 269.916 183.175 269.978 183.175Z" fill="#EA7971"/>
<path d="M273.833 182.511C273.875 182.504 273.913 182.482 273.941 182.45C273.968 182.417 273.984 182.376 273.984 182.333C273.984 182.29 273.968 182.249 273.941 182.216C273.913 182.183 273.875 182.162 273.833 182.155C273.791 182.162 273.752 182.183 273.725 182.216C273.697 182.249 273.682 182.29 273.682 182.333C273.682 182.376 273.697 182.417 273.725 182.45C273.752 182.482 273.791 182.504 273.833 182.511Z" fill="#EA7971"/>
<path d="M280.677 177.185L280.632 177.085C280.617 177.059 280.594 177.037 280.568 177.022C280.542 177.007 280.512 176.999 280.481 176.999C280.451 176.999 280.421 177.007 280.395 177.022C280.368 177.037 280.346 177.059 280.331 177.085L280.285 177.185C280.084 177.617 280.878 177.617 280.677 177.185Z" fill="#EA7971"/>
<path d="M278.059 181.22C278.117 181.208 278.169 181.177 278.207 181.131C278.244 181.085 278.265 181.028 278.265 180.969C278.265 180.909 278.244 180.852 278.207 180.806C278.169 180.761 278.117 180.729 278.059 180.717C278.001 180.729 277.949 180.761 277.911 180.806C277.874 180.852 277.853 180.909 277.853 180.969C277.853 181.028 277.874 181.085 277.911 181.131C277.949 181.177 278.001 181.208 278.059 181.22Z" fill="#EA7971"/>
<path d="M279.376 173.583L279.431 173.517C279.465 173.481 279.483 173.433 279.483 173.384C279.483 173.335 279.465 173.287 279.431 173.251L279.376 173.186C279.337 173.146 279.286 173.119 279.232 173.108C279.177 173.097 279.12 173.103 279.069 173.124C279.017 173.145 278.973 173.181 278.942 173.228C278.911 173.274 278.895 173.328 278.895 173.384C278.895 173.44 278.911 173.494 278.942 173.541C278.973 173.587 279.017 173.623 279.069 173.644C279.12 173.665 279.177 173.671 279.232 173.66C279.286 173.649 279.337 173.622 279.376 173.583Z" fill="#EA7971"/>
<path d="M310.438 165.478C312.086 170.03 308.689 176.396 303.211 178.376C300.776 179.26 298.091 179.152 295.735 178.076C293.378 177 291.539 175.042 290.613 172.623C288.964 168.065 292.377 163.634 297.854 161.654C303.332 159.674 308.79 160.92 310.438 165.478Z" fill="#FFC1AB"/>
<path d="M304.026 167.317C302.181 165.97 300.116 166.628 298.357 167.643C298.286 167.684 298.231 167.748 298.202 167.825C298.173 167.902 298.172 167.986 298.199 168.064C298.226 168.141 298.279 168.207 298.349 168.249C298.419 168.292 298.502 168.309 298.583 168.297C300.211 168.06 300.563 168.633 300.503 169.271C300.445 169.716 300.536 170.167 300.764 170.553C301.048 171.017 301.491 171.362 302.012 171.522C302.532 171.682 303.093 171.646 303.588 171.422C304.925 170.789 306.865 169.387 304.026 167.317Z" fill="#232846"/>
<path d="M218.995 168.819C220.555 166.883 221.408 164.472 221.412 161.986C221.414 161.33 221.353 160.675 221.231 160.031C219.186 159.163 216.986 158.717 214.764 158.72C212.099 158.72 209.473 159.36 207.106 160.583C204.74 161.807 202.7 163.58 201.16 165.754C205.332 168.02 210.016 169.179 214.764 169.121C216.179 169.118 217.593 169.017 218.995 168.819Z" fill="#232846"/>
<path d="M274.049 168.709C275.559 166.792 276.382 164.425 276.386 161.986C276.385 161.434 276.342 160.883 276.255 160.338C272.712 158.651 268.687 158.269 264.889 159.258C261.092 160.247 257.765 162.544 255.495 165.744C259.669 168.009 264.354 169.168 269.104 169.111C270.76 169.111 272.414 168.977 274.049 168.709Z" fill="#232846"/>
<path d="M290.391 151.575L290.552 151.384C290.576 151.361 290.589 151.33 290.589 151.298C290.59 151.265 290.577 151.234 290.555 151.21C290.532 151.187 290.501 151.174 290.469 151.173C290.436 151.173 290.405 151.185 290.381 151.208L290.19 151.369C290.045 151.489 290.271 151.715 290.391 151.575Z" fill="#601F1F"/>
<path d="M208.316 151.107C215.026 149.399 222.016 149.093 228.85 150.208C229.614 150.339 229.93 149.168 229.172 149.047C222.145 147.887 214.946 148.358 208.13 150.424C208.049 150.457 207.984 150.518 207.945 150.596C207.907 150.674 207.898 150.764 207.921 150.848C207.944 150.932 207.996 151.005 208.069 151.052C208.142 151.1 208.23 151.12 208.316 151.107Z" fill="#232846"/>
<path d="M275.446 147.831C269.049 144.877 260.495 145.555 253.837 147.364C253.369 147.49 253.445 148.268 253.957 148.228C257.435 147.967 260.842 147.128 264.345 146.952C268.036 146.777 271.732 147.207 275.285 148.223C275.511 148.288 275.677 147.937 275.451 147.831H275.446Z" fill="#232846"/>
<path d="M258.327 187.562C255.65 189.148 252.61 190.022 249.499 190.099C246.388 190.177 243.309 189.455 240.556 188.003C239.356 187.374 238.287 189.189 239.49 189.824C242.565 191.458 246.008 192.277 249.49 192.201C252.971 192.126 256.375 191.159 259.376 189.393C260.548 188.708 259.498 186.882 258.31 187.547L258.327 187.562Z" fill="#A03232"/>
<path d="M246.263 150.766C246.967 150.067 265.4 143.344 261.561 120.703C257.721 98.0623 255.495 117.186 255.495 117.186" fill="#232846"/>
<path d="M148.232 230.451C157.353 224.045 169.53 225.211 178.601 218.563C182.496 215.714 185.63 211.951 187.727 207.604C189.893 203.082 190.853 198.083 195.798 195.852C196.21 195.666 195.888 195.128 195.516 195.183C191.657 195.746 189.802 199.957 188.481 203.137C186.224 208.554 183.566 213.342 178.932 217.141C169.912 224.552 157.373 223.477 148.051 230.165C147.88 230.285 148.051 230.572 148.217 230.451H148.232Z" fill="#605C5B"/>
<path d="M200.537 192.174C200.591 192.158 200.639 192.125 200.674 192.08C200.708 192.034 200.726 191.979 200.726 191.922C200.726 191.866 200.708 191.81 200.674 191.765C200.639 191.72 200.591 191.687 200.537 191.671C200.482 191.687 200.434 191.72 200.4 191.765C200.366 191.81 200.347 191.866 200.347 191.922C200.347 191.979 200.366 192.034 200.4 192.08C200.434 192.125 200.482 192.158 200.537 192.174Z" fill="#605C5B"/>
<path d="M122.416 265.307C137.045 242.194 168.685 244.957 190.652 233.863C190.787 233.793 190.652 233.597 190.536 233.662C168.505 244.214 136.352 241.812 122.14 265.146C122.124 265.183 122.121 265.223 122.134 265.261C122.146 265.299 122.171 265.331 122.206 265.351C122.24 265.371 122.281 265.377 122.319 265.369C122.358 265.361 122.393 265.339 122.416 265.307Z" fill="#605C5B"/>
<path d="M198.351 231.577C198.934 230.838 199.501 230.095 200.049 229.326C200.195 229.115 199.868 228.879 199.697 229.054C199.064 229.713 198.451 230.386 197.843 231.064C197.537 231.416 198.074 231.928 198.346 231.567L198.351 231.577Z" fill="#605C5B"/>
<path d="M159.876 210.956C165.906 208.137 172.208 205.027 176.058 199.344C180.475 192.812 181.546 184.079 189.124 180.109C189.4 179.964 189.154 179.607 188.883 179.697C182.224 182.536 180.299 190.103 177.349 196.017C173.661 203.424 166.881 207.172 159.76 210.77C159.635 210.83 159.76 211.011 159.871 210.956H159.876Z" fill="#605C5B"/>
<path d="M195.024 176.462C195.082 176.45 195.134 176.419 195.172 176.373C195.209 176.327 195.23 176.27 195.23 176.21C195.23 176.151 195.209 176.094 195.172 176.048C195.134 176.002 195.082 175.971 195.024 175.959C194.966 175.971 194.914 176.002 194.876 176.048C194.838 176.094 194.818 176.151 194.818 176.21C194.818 176.27 194.838 176.327 194.876 176.373C194.914 176.419 194.966 176.45 195.024 176.462Z" fill="#605C5B"/>
<path d="M194.587 149.329C204.131 146.556 213.431 143.001 222.392 138.702C231.237 134.461 239.514 129.054 246.233 121.859C246.504 121.573 246.077 121.146 245.806 121.427C239.027 128.502 230.835 133.868 222.076 138.164C213.151 142.545 203.728 145.419 194.511 149.042C194.335 149.113 194.401 149.384 194.587 149.329Z" fill="#605C5B"/>
<path d="M252.434 122.01L252.651 121.754C252.697 121.707 252.722 121.644 252.722 121.578C252.721 121.513 252.695 121.45 252.648 121.404C252.601 121.358 252.538 121.333 252.473 121.333C252.407 121.334 252.345 121.36 252.299 121.407L252.047 121.618C251.771 121.849 252.208 122.286 252.434 122.01Z" fill="#605C5B"/>
<path d="M260.314 117.588C260.54 119.543 260.746 121.497 261.013 123.447C261.048 123.708 261.46 123.718 261.43 123.447C261.204 121.492 260.927 119.543 260.661 117.588C260.631 117.372 260.289 117.367 260.314 117.588Z" fill="#605C5B"/>
<path d="M271.074 132.526C277.381 138.983 286.417 144.972 295.548 146.223C295.617 146.235 295.689 146.221 295.748 146.183C295.808 146.146 295.852 146.087 295.871 146.019C295.89 145.952 295.884 145.879 295.853 145.815C295.822 145.752 295.769 145.702 295.704 145.676C291.181 144.198 286.788 143.008 282.562 140.716C278.429 138.454 274.627 135.632 271.265 132.33C271.144 132.21 270.953 132.401 271.074 132.526Z" fill="#605C5B"/>
<path d="M288.753 149.364C291.025 150.469 293.779 151.374 296.327 151.132C296.543 151.107 296.643 150.746 296.382 150.71C293.749 150.354 291.356 150.138 288.844 149.092C288.693 149.032 288.582 149.293 288.733 149.364H288.753Z" fill="#605C5B"/>
<path d="M291.09 156.087C291.681 156.237 292.253 156.449 292.799 156.72C293.24 156.986 293.699 157.222 294.171 157.428C294.427 157.519 294.563 157.182 294.417 157.006C293.688 156.162 292.286 155.79 291.236 155.569C290.899 155.504 290.733 156.001 291.09 156.072V156.087Z" fill="#605C5B"/>
<path d="M231.84 267.352C231.84 267.352 225.508 245.193 231.84 243.787C238.172 242.38 297.106 239.219 299.297 246.801C301.488 254.384 296.91 269.312 296.91 269.312" fill="#8B6FFE"/>
<path d="M290.392 263.523C290.392 263.523 293.593 239.908 336.329 246.766C379.066 253.625 397.434 249.5 397.434 249.5L365.994 163.327L392.936 154.464C392.936 154.464 465.78 248.228 455.226 282.662C444.673 317.096 375.9 316.412 322.087 311.137" fill="#8B6FFE"/>
<path d="M123.929 310.257C125.542 313.272 127.446 316.131 128.954 319.226C130.567 322.558 131.809 326.035 133.085 329.502C133.105 329.574 133.153 329.635 133.218 329.671C133.283 329.708 133.36 329.718 133.432 329.698C133.504 329.678 133.565 329.63 133.602 329.565C133.638 329.5 133.648 329.423 133.628 329.351C132.035 322.663 128.763 315.282 124.24 310.031C124.095 309.86 123.843 310.076 123.944 310.257H123.929Z" fill="#232846"/>
<path d="M135.291 335.461C135.508 335.474 135.723 335.416 135.904 335.296C136.085 335.177 136.223 335.002 136.296 334.798C136.402 334.541 136.06 334.295 135.844 334.446C135.674 334.553 135.477 334.61 135.276 334.612C135.171 334.623 135.075 334.673 135.004 334.751C134.934 334.829 134.895 334.931 134.895 335.036C134.895 335.142 134.934 335.243 135.004 335.321C135.075 335.4 135.171 335.449 135.276 335.461H135.291Z" fill="#232846"/>
<path d="M193.968 342.897C201.034 337.069 208.115 331.255 215.075 325.311C215.387 325.045 214.939 324.613 214.633 324.864C207.597 330.708 200.642 336.672 193.687 342.621C193.496 342.777 193.767 343.043 193.953 342.887L193.968 342.897Z" fill="#232846"/>
<path d="M318.504 282.933C324.188 291.41 327.364 300.67 329.173 310.649C329.233 310.991 329.816 310.916 329.781 310.569C328.776 300.58 324.61 290.872 318.871 282.717C318.715 282.491 318.368 282.717 318.504 282.933Z" fill="#232846"/>
<path d="M394.217 241.42C395.349 245.105 396.522 248.778 397.735 252.439C398.916 255.991 401.027 260.132 401.117 263.9C401.117 264.227 401.65 264.332 401.715 263.981C402.333 260.664 400.037 256.665 398.971 253.6C397.544 249.489 396.07 245.399 394.549 241.329C394.478 241.139 394.167 241.214 394.232 241.42H394.217Z" fill="#232846"/>
<path d="M277.099 255.926C275.742 257.845 274.471 260.75 275.406 263.121C276.089 264.865 277.958 265.518 279.195 263.97C280.431 262.423 280.039 260.398 277.823 260.187C275.461 259.956 275.31 262.162 276.783 263.448C276.891 263.553 277.03 263.619 277.18 263.638C277.329 263.657 277.481 263.628 277.612 263.553C277.895 263.405 278.144 263.199 278.344 262.949C278.544 262.699 278.69 262.41 278.773 262.101C278.803 261.985 278.802 261.862 278.77 261.746C278.738 261.63 278.677 261.524 278.591 261.438C278.506 261.353 278.4 261.292 278.284 261.26C278.168 261.228 278.045 261.227 277.928 261.257C277.014 261.498 276.421 262.765 277.275 263.468C278.129 264.171 279.356 263.252 279.285 262.227C279.282 262.111 279.249 261.997 279.189 261.897C279.13 261.797 279.046 261.714 278.945 261.656C278.844 261.597 278.73 261.566 278.614 261.564C278.498 261.562 278.383 261.589 278.28 261.644C278.133 261.715 278.003 261.817 277.898 261.942C277.794 262.068 277.717 262.215 277.674 262.372C277.631 262.53 277.623 262.695 277.649 262.856C277.676 263.018 277.737 263.171 277.828 263.307C277.92 263.459 278.067 263.569 278.239 263.614C278.41 263.659 278.593 263.635 278.748 263.548C279.034 263.442 279.269 263.229 279.402 262.954C279.536 262.678 279.559 262.363 279.466 262.071C279.346 261.317 278.325 261.609 278.245 262.237L278.069 262.393L278.989 262.634V262.81L277.984 262.227L278.366 262.584L277.521 261.74L277.019 262.368L277.848 262.478C277.416 262.272 277.345 261.946 277.697 261.473C278.773 262.227 278.908 262.932 278.104 263.589C276.597 264.448 276.22 261.865 276.21 261.177C276.18 259.458 276.918 257.7 277.763 256.243C277.979 255.871 277.436 255.569 277.195 255.911L277.099 255.926Z" fill="#232846"/>
<path d="M280.883 276.246C279.526 278.165 278.255 281.069 279.19 283.441C279.878 285.184 281.743 285.838 282.979 284.29C284.215 282.742 283.823 280.718 281.612 280.501C279.245 280.275 279.099 282.476 280.567 283.767C280.676 283.87 280.815 283.935 280.964 283.954C281.113 283.973 281.264 283.945 281.396 283.873C281.679 283.723 281.928 283.517 282.127 283.268C282.327 283.018 282.473 282.73 282.557 282.421C282.588 282.305 282.588 282.182 282.557 282.066C282.526 281.949 282.465 281.843 282.38 281.757C282.295 281.672 282.189 281.61 282.073 281.579C281.957 281.547 281.834 281.546 281.718 281.577C280.803 281.818 280.21 283.084 281.059 283.788C281.999 284.551 283.14 283.572 283.069 282.547C283.066 282.43 283.033 282.317 282.973 282.217C282.914 282.117 282.83 282.034 282.729 281.975C282.628 281.917 282.515 281.885 282.398 281.883C282.282 281.881 282.167 281.909 282.064 281.964C281.917 282.035 281.787 282.136 281.682 282.262C281.578 282.388 281.501 282.534 281.458 282.692C281.416 282.85 281.407 283.015 281.434 283.176C281.46 283.337 281.521 283.491 281.612 283.627C281.704 283.778 281.851 283.888 282.023 283.933C282.195 283.978 282.377 283.955 282.532 283.868C282.818 283.761 283.053 283.548 283.187 283.273C283.32 282.998 283.343 282.682 283.25 282.391C283.13 281.637 282.11 281.928 282.029 282.557L281.853 282.712L282.773 282.948V283.129L281.768 282.547L282.15 282.898L281.305 282.059L280.803 282.687L281.632 282.798C281.2 282.592 281.13 282.26 281.481 281.793C282.557 282.547 282.692 283.252 281.888 283.908C280.381 284.767 280.004 282.185 279.994 281.496C279.994 279.778 280.702 278.019 281.547 276.562C281.763 276.19 281.22 275.889 280.979 276.231L280.883 276.246Z" fill="#232846"/>
<path d="M284.667 296.565C283.311 298.485 282.039 301.389 282.974 303.76C283.662 305.504 285.527 306.152 286.763 304.61C287.999 303.067 287.607 301.037 285.396 300.821C283.029 300.595 282.883 302.796 284.351 304.082C284.46 304.186 284.6 304.253 284.75 304.273C284.9 304.293 285.052 304.265 285.185 304.193C285.469 304.046 285.721 303.844 285.925 303.598C286.128 303.352 286.28 303.067 286.371 302.761C286.401 302.644 286.4 302.521 286.368 302.405C286.336 302.289 286.275 302.183 286.19 302.098C286.104 302.012 285.999 301.951 285.882 301.919C285.766 301.887 285.643 301.886 285.527 301.916C284.612 302.158 284.019 303.424 284.873 304.122C285.728 304.821 286.949 303.911 286.853 302.886C286.85 302.77 286.817 302.656 286.757 302.556C286.698 302.456 286.614 302.373 286.513 302.315C286.413 302.257 286.299 302.225 286.182 302.223C286.066 302.221 285.951 302.249 285.848 302.303C285.701 302.374 285.571 302.476 285.466 302.602C285.362 302.727 285.285 302.874 285.243 303.032C285.2 303.189 285.191 303.354 285.218 303.516C285.244 303.677 285.305 303.831 285.396 303.966C285.489 304.117 285.636 304.226 285.808 304.271C285.979 304.316 286.161 304.293 286.316 304.208C286.602 304.1 286.836 303.887 286.97 303.612C287.105 303.338 287.129 303.022 287.039 302.73C286.914 301.972 285.894 302.268 285.813 302.896L285.637 303.047L286.557 303.288V303.469L285.552 302.886L285.934 303.238L285.09 302.399L284.587 303.027L285.416 303.132C284.984 302.931 284.914 302.6 285.27 302.127C286.343 302.881 286.477 303.586 285.672 304.243C284.165 305.102 283.788 302.519 283.778 301.831C283.778 300.113 284.486 298.349 285.331 296.897C285.547 296.525 285.004 296.224 284.763 296.565H284.667Z" fill="#232846"/>
<path d="M68.634 222.045C69.3375 221.573 86.8663 209.619 80.7704 194.028C74.6745 178.436 56.6784 178.2 57.2614 183.712C57.8443 189.224 67.2268 193.324 67.2268 193.324C67.2268 193.324 52.8088 206.509 57.8343 219.814C60.0706 225.733 68.634 222.045 68.634 222.045Z" fill="#FFC1AB"/>
<path d="M371.15 167.563C368.669 167.065 366.462 165.66 364.959 163.624C360.622 157.74 351.526 144.585 352.601 139.189C354.009 132.154 359.843 130.959 359.843 130.959C359.843 130.959 362.687 111.498 377.693 104.233C392.699 96.9669 388.714 107.303 388.714 107.303L378.397 120.517C378.397 120.517 388.247 115.252 395.282 121.583C402.318 127.914 399.735 138.742 397.393 139.169C397.393 139.189 400.142 173.432 371.15 167.563Z" fill="#FFC1AB"/>
<path d="M57.8091 182.27C56.7537 184.441 58.1408 186.963 59.5831 188.646C60.327 189.472 61.2339 190.134 62.2466 190.591C63.721 191.413 65.2507 192.131 66.8247 192.741C67.2318 192.882 67.463 192.274 67.1112 192.063C65.3372 191.008 63.2617 190.516 61.4978 189.425C59.4876 188.174 57.2111 184.813 58.1106 182.391C58.1759 182.22 57.8895 182.099 57.8091 182.265V182.27Z" fill="#232846"/>
<path d="M68.1062 194.585L68.0409 194.535C67.9892 194.485 67.9198 194.456 67.8474 194.456C67.7751 194.456 67.7056 194.485 67.6539 194.535L67.5886 194.585C67.535 194.636 67.4978 194.701 67.4818 194.773C67.4658 194.845 67.4717 194.919 67.4988 194.988C67.5259 195.056 67.5729 195.115 67.6337 195.156C67.6945 195.197 67.7664 195.22 67.8399 195.22C67.9134 195.22 67.9852 195.197 68.046 195.156C68.1069 195.115 68.1539 195.056 68.1809 194.988C68.208 194.919 68.2139 194.845 68.1979 194.773C68.1819 194.701 68.1447 194.636 68.0912 194.585H68.1062Z" fill="#232846"/>
<path d="M112.727 112.855C105.47 124.023 98.4013 135.307 91.5198 146.706C88.1125 152.364 84.7656 158.051 81.4287 163.744C77.9561 169.668 74.0815 175.502 71.016 181.642C70.9879 181.7 70.9828 181.767 71.0018 181.829C71.0207 181.89 71.0623 181.943 71.1183 181.975C71.1742 182.008 71.2403 182.018 71.3033 182.003C71.3664 181.989 71.4217 181.952 71.4582 181.898C75.2173 176.371 78.333 170.271 81.7101 164.488C85.0872 158.705 88.5497 152.811 92.0223 147.002C98.8536 135.576 105.874 124.264 113.084 113.066C113.225 112.84 112.873 112.634 112.727 112.855Z" fill="#232846"/>
<path d="M48.5322 198.67C49.6931 202.424 50.6228 206.378 52.1053 210.016C52.6078 211.237 53.5777 212.78 55.1658 212.307C56.1709 212.016 56.4422 210.946 56.8091 210.117C57.4724 208.639 58.0805 207.137 58.6987 205.64C60.2766 201.826 61.9602 198.047 63.4728 194.209C63.5633 193.977 63.1763 193.817 63.0758 194.038C60.8093 198.932 58.6585 203.911 56.5427 208.87C56.4071 209.197 56.2764 209.519 56.1407 209.84L55.5829 211.132L52.6882 209.85C52.0952 209.112 51.8992 207.494 51.5927 206.589C50.6981 203.916 49.7584 201.253 48.8387 198.585C48.7734 198.389 48.4568 198.469 48.5221 198.67H48.5322Z" fill="#232846"/>
<path d="M64.7492 193.148L64.8749 192.947C64.9047 192.891 64.9156 192.826 64.9059 192.762C64.8962 192.698 64.8665 192.64 64.821 192.594C64.7756 192.549 64.7168 192.519 64.6532 192.509C64.5897 192.5 64.5247 192.511 64.4678 192.54L64.2618 192.666C63.7592 192.968 64.4427 193.671 64.7643 193.169L64.7492 193.148Z" fill="#232846"/>
<path d="M79.0416 190.093C82.1116 190.699 85.1038 191.648 87.9618 192.922C89.8765 193.787 91.7158 195.023 93.8818 194.932C94.0627 194.932 94.123 194.631 93.927 194.601C91.4645 194.183 89.3388 192.706 87.0271 191.807C84.4802 190.828 81.8296 190.143 79.1271 189.767C78.9261 189.737 78.8356 190.033 79.0416 190.078V190.093Z" fill="#232846"/>
<path d="M0.725106 197.007C8.53713 196.839 16.3158 195.934 23.9577 194.304C31.8175 192.636 39.9738 190.837 47.5421 188.114C47.6306 188.081 47.7035 188.016 47.7464 187.932C47.7893 187.848 47.799 187.751 47.7738 187.66C47.7485 187.569 47.69 187.491 47.6099 187.441C47.5298 187.391 47.4339 187.373 47.3411 187.39C39.7125 188.993 32.2648 191.586 24.6613 193.269C16.7764 195.008 8.80602 196.369 0.725106 196.646C0.677124 196.646 0.631107 196.665 0.597179 196.699C0.56325 196.732 0.544189 196.778 0.544189 196.826C0.544189 196.874 0.56325 196.92 0.597179 196.954C0.631107 196.988 0.677124 197.007 0.725106 197.007Z" fill="#232846"/>
<path d="M371.985 132.652C375.065 132.883 378.091 135.556 377.01 138.892C376.332 141.028 373.995 142.219 372.01 142.887C371.935 142.911 371.869 142.958 371.823 143.022C371.776 143.086 371.751 143.162 371.751 143.241C371.751 143.32 371.776 143.397 371.823 143.461C371.869 143.524 371.935 143.572 372.01 143.596C375.729 144.686 378.262 147.022 380.231 150.293C380.382 150.55 380.845 150.384 380.734 150.087C379.277 146.414 375.965 143.882 372.191 142.887V143.596C375.136 142.711 378.221 141.043 378.121 137.496C378.015 134.139 375.075 132.129 371.955 132.059C371.568 132.059 371.578 132.627 371.955 132.652H371.985Z" fill="#232846"/>
<path d="M378.88 119.618C377.875 121.995 376.643 124.401 375.864 126.869C375.846 126.928 375.851 126.993 375.878 127.049C375.904 127.106 375.951 127.15 376.009 127.174C376.067 127.198 376.131 127.199 376.19 127.178C376.249 127.157 376.297 127.115 376.327 127.06C377.498 124.748 378.337 122.191 379.242 119.774C379.322 119.563 378.97 119.412 378.88 119.618Z" fill="#232846"/>
<path d="M381.206 137.918C382.664 139.495 385.538 139.747 386.935 137.948C386.966 137.918 386.99 137.881 387.007 137.842C387.024 137.802 387.033 137.759 387.033 137.716C387.033 137.673 387.025 137.63 387.009 137.59C386.992 137.55 386.968 137.514 386.938 137.483C386.908 137.452 386.871 137.428 386.832 137.411C386.792 137.395 386.749 137.386 386.706 137.386C386.663 137.385 386.62 137.394 386.58 137.41C386.54 137.426 386.504 137.45 386.473 137.481C385.036 138.631 383.011 138.847 381.603 137.521C381.55 137.474 381.48 137.45 381.409 137.452C381.338 137.455 381.27 137.484 381.22 137.534C381.17 137.585 381.14 137.652 381.138 137.723C381.135 137.794 381.16 137.864 381.206 137.918Z" fill="#232846"/>
<path d="M389.78 137.677C390.599 138.953 392.74 138.877 393.373 137.455C393.421 137.374 393.434 137.276 393.41 137.184C393.386 137.092 393.327 137.014 393.245 136.966C393.163 136.918 393.065 136.904 392.973 136.928C392.881 136.952 392.803 137.012 392.755 137.094C392.611 137.282 392.429 137.438 392.221 137.552C392.014 137.666 391.785 137.737 391.549 137.758C391.313 137.78 391.075 137.753 390.85 137.678C390.625 137.604 390.418 137.483 390.242 137.325C390.016 137.104 389.609 137.39 389.79 137.677H389.78Z" fill="#232846"/>
<path d="M396.604 138.551C396.996 138.551 397.383 138.581 397.775 138.551C397.859 138.541 397.937 138.5 397.993 138.437C398.049 138.373 398.08 138.291 398.08 138.207C398.08 138.122 398.049 138.04 397.993 137.977C397.937 137.913 397.859 137.873 397.775 137.862C397.383 137.862 396.991 137.862 396.604 137.862C396.525 137.872 396.453 137.911 396.4 137.97C396.347 138.03 396.318 138.107 396.318 138.187C396.318 138.266 396.347 138.343 396.4 138.403C396.453 138.462 396.525 138.501 396.604 138.511V138.551Z" fill="#232846"/>
<path d="M481.018 49.2171C481.018 62.5393 475.584 74.5963 466.726 83.2297C466.652 83.3041 466.503 83.453 466.428 83.5274C457.868 91.7887 446.256 96.8496 433.452 96.8496C409.632 96.8496 389.906 79.3595 386.408 56.5852C386.333 56.2131 386.333 55.9154 386.259 55.5433C386.035 54.1292 385.961 52.6407 385.886 51.1521C385.886 50.4823 385.812 49.8869 385.812 49.2171C385.738 30.2385 396.829 13.8648 412.907 6.19894C414.322 5.5291 415.736 4.9337 417.225 4.41272C417.299 4.41272 417.374 4.33829 417.374 4.33829C422.361 2.55207 427.721 1.58453 433.378 1.58453C437.1 1.58453 440.673 2.03109 444.171 2.84977C444.618 2.9242 445.139 3.07305 445.586 3.2219C449.754 4.33829 453.699 5.97566 457.272 8.05958C458.091 8.50614 458.91 9.02712 459.729 9.5481C466.577 14.0881 472.16 20.3399 475.882 27.708C476.18 28.3034 476.477 28.8244 476.701 29.4198C479.455 35.4483 481.018 42.1466 481.018 49.2171Z" fill="#30E0A2"/>
<path d="M474.765 30.3129C473.649 30.685 472.383 30.4618 471.267 30.2385C469.034 29.7919 466.875 29.4198 464.642 29.0477C463.004 28.75 461.59 28.0057 459.878 27.9313C455.709 27.7824 451.466 28.5267 447.893 30.5362C445.362 31.9503 443.204 34.2575 441.864 36.9368C440.152 40.3604 439.78 44.3794 441.64 47.6541C444.32 52.2685 450.424 54.3525 452.583 59.2646C453.625 61.6462 453.625 64.3999 454.444 66.856C456.603 73.4055 464.121 77.0523 466.726 83.3041C466.652 83.3785 466.503 83.5274 466.428 83.6018C457.868 91.8631 446.256 96.924 433.452 96.924C425.934 96.924 418.49 95.1378 411.865 91.7142C409.111 90.3001 406.431 88.6628 403.975 86.6533C396.382 80.6992 390.799 72.5868 387.896 63.5068C387.599 62.6137 387.375 61.7206 387.152 60.7531C386.631 58.7436 385.068 54.2036 388.864 54.799C390.055 54.9479 391.023 55.7665 391.916 56.5852C393.181 57.7016 394.447 58.7436 395.712 59.86C396.754 60.7531 397.573 61.795 398.541 62.6882C400.625 64.5488 402.858 66.4094 405.613 67.0048C406.729 67.3026 407.92 67.3026 409.111 67.2281C410.228 67.1537 411.27 67.0793 412.312 66.7816C415.066 65.9629 417.15 63.5813 418.341 60.9019C420.351 56.2875 420.5 50.3335 418.714 45.6446C417.448 42.3699 414.917 39.4673 411.642 38.2765C409.483 37.5322 405.538 37.6066 404.422 35.3739C403.379 33.2155 403.826 30.4618 405.389 28.75C406.282 27.7824 407.473 27.187 408.664 26.5172C410.377 25.6241 412.089 24.731 413.801 23.8379C416.406 22.4982 419.16 20.9353 420.053 18.1815C421.393 14.0137 418.341 10.0691 417.523 6.12451C417.299 5.15697 417.15 4.56157 417.895 4.04059C418.639 3.59403 419.83 3.44518 420.723 3.2219C422.361 2.77535 423.999 2.40322 425.711 2.17994C428.167 1.80781 430.698 1.58453 433.229 1.58453C435.239 1.58453 437.249 1.73339 439.258 1.95666C439.78 2.03109 440.301 2.17994 440.896 2.25437C441.343 2.32879 442.757 2.32879 443.129 2.6265C444.32 3.59403 442.608 6.49664 442.162 7.5386C441.566 8.95269 441.194 10.5156 441.119 12.0786C441.045 13.4927 441.268 14.9812 442.087 16.0976C442.906 17.214 444.469 17.8838 445.809 17.3628C446.479 17.0651 447 16.4697 447.447 15.9487C449.605 13.4927 452.136 11.4087 454.816 9.5481C455.709 8.95269 456.677 8.43171 457.719 8.50614C458.91 8.65499 459.878 9.69695 460.845 10.3668C461.962 11.1855 463.004 11.9297 464.046 12.8228C466.279 14.7579 468.364 16.8418 470.299 19.149C471.862 21.0841 473.277 23.0936 474.542 25.252C474.989 25.9218 475.584 26.8149 475.956 27.6336C476.403 28.6755 476.329 29.7175 474.765 30.3129Z" fill="#57EAEF"/>
<path d="M481.39 42.6676C481.167 40.5837 480.795 37.83 479.753 34.4064C471.713 7.68749 442.087 -6.82555 415.959 3.29636C397.275 10.5157 383.951 28.1546 384.323 50.4824C384.695 65.8141 392.735 81.2202 406.804 90.2258C415.811 96.031 426.678 98.6359 436.728 97.8172C451.317 96.8497 462.558 89.9281 471.565 78.9875C473.947 75.936 475.733 72.8101 477.073 69.7587C478.413 66.7816 479.381 63.9534 479.976 61.423C480.572 58.8925 480.869 56.6597 481.093 54.8735C481.241 53.0873 481.316 51.6732 481.241 50.7056C481.241 49.7381 481.167 49.2171 481.093 49.2171C481.018 49.2171 480.944 49.7381 480.869 50.6312C480.795 51.5987 480.646 53.0128 480.423 54.7246C480.199 56.5109 479.753 58.6692 479.083 61.1253C478.413 63.5813 477.371 66.3351 475.956 69.1633C474.542 72.0659 472.756 75.0429 470.374 77.9455C469.034 79.5084 467.694 80.9225 466.279 82.2622C466.205 82.0389 466.205 81.8157 466.131 81.5924C465.833 80.476 465.163 78.8386 463.897 77.1268C461.515 73.8521 457.794 71.917 456.23 68.8655C455.933 68.2701 455.709 67.6747 455.56 67.0049C455.039 64.5488 455.188 62.3905 454.518 59.86C454.295 58.9669 453.923 58.0738 453.327 57.2551C453.029 56.883 452.732 56.4364 452.36 56.1387C452.136 55.9154 435.685 47.1332 444.767 34.6297C451.764 25.1031 462.855 30.0897 471.937 30.6106C473.947 30.6851 475.138 30.4618 475.807 30.1641C476.552 31.727 477.147 33.29 477.743 34.9273C478.859 38.2021 479.381 40.807 479.753 42.8165C480.125 44.826 480.274 46.1657 480.423 47.1332C480.646 48.9938 480.869 49.1427 481.093 49.1427C481.316 49.1427 481.539 48.9938 481.614 47.0588C481.614 46.1657 481.614 44.7516 481.39 42.6676ZM444.023 4.2639C447.968 5.23144 451.764 6.64553 455.337 8.5806C454.816 8.65502 454.22 8.80388 453.551 8.95273C449.978 10.0691 448.489 12.153 447.074 14.0137C446.553 14.6835 445.958 15.4278 445.288 16.0232C443.353 17.6606 442.013 15.5022 442.534 11.1111C442.831 8.8783 443.427 6.8688 443.799 5.38029C443.874 4.93373 443.948 4.5616 444.023 4.2639ZM417.002 6.12455C417.076 6.12455 417.15 6.05012 417.225 6.05012C417.225 6.2734 417.299 6.42225 417.299 6.64553C417.597 8.05962 418.267 9.99469 418.937 12.3763C421.17 20.8609 415.289 21.8284 408.59 24.8054C406.804 25.6241 404.868 26.6661 403.379 28.5267C402.709 29.4943 402.188 30.5362 401.965 31.727C401.742 32.9179 401.742 34.1831 402.188 35.3739C402.635 36.5647 403.677 37.6811 404.868 38.2765C406.059 38.8719 407.176 39.0208 408.143 39.1696C413.652 40.2116 416.778 44.5283 417.746 50.2591C418.044 51.8964 418.044 53.5338 417.969 55.0223C417.82 56.5109 417.597 58.0738 417.299 59.4135C417.002 60.8276 416.555 62.1672 416.034 63.2836C415.811 63.8046 415.438 64.3256 415.141 64.6977C414.843 64.9954 414.471 65.2931 413.95 65.5908C405.687 69.9075 396.084 57.7761 393.107 55.6177C392.214 54.9479 391.395 54.5014 390.576 54.1292C390.204 53.9804 389.832 53.8315 389.459 53.6827C389.087 53.5338 388.492 53.4594 388.045 53.5338C387.822 53.6082 387.599 53.6827 387.45 53.7571C387.375 52.6407 387.226 51.4499 387.226 50.3335C387.003 29.5687 399.36 12.9717 417.002 6.12455ZM472.16 28.5267C471.043 28.3035 469.704 28.0802 468.066 27.708C457.868 25.5497 448.787 23.9123 442.236 32.9179C436.728 40.5093 437.621 50.1847 449.829 57.4784C450.499 57.8505 450.945 58.2971 451.317 58.8181C451.69 59.339 451.987 59.9344 452.211 60.6787C452.881 62.7626 452.806 65.0698 453.476 67.6747C455.486 74.4475 461.515 73.9265 465.461 82.0389C465.609 82.3366 465.758 82.6343 465.833 82.8576C457.868 90.449 448.34 95.1379 436.43 95.8077C426.753 96.4775 416.555 93.7982 408.069 88.2163C396.457 80.4016 389.459 68.3446 387.673 55.9899C387.822 55.6177 388.045 55.4689 388.343 55.4689C388.492 55.4689 388.492 55.4689 388.79 55.6177C389.013 55.7666 389.385 55.841 389.683 56.0643C390.278 56.4364 390.948 56.883 391.693 57.4784C394.596 59.9344 396.308 62.9859 401.37 66.2606C406.134 69.3121 410.525 70.8006 415.513 68.2701C419.532 66.1862 420.723 59.86 421.096 55.32C421.244 53.5338 421.096 51.7476 420.798 49.8125C419.681 43.6352 416.406 38.7231 410.377 37.0113C409.855 36.8624 409.26 36.7136 408.813 36.6391C407.771 36.4903 406.878 36.3414 406.208 35.9693C405.538 35.6716 405.091 35.1506 404.794 34.4808C404.198 33.1411 404.57 31.2061 405.538 29.8664C405.613 29.7175 405.761 29.5687 405.91 29.4198C406.059 29.271 406.208 29.1221 406.357 28.9733C406.655 28.6756 407.027 28.3779 407.399 28.1546C412.312 24.5822 424.148 23.5402 420.351 12.0786C419.905 10.8878 419.458 9.77141 419.086 8.8783C418.714 7.98519 418.416 7.16651 418.118 6.49668C418.044 6.2734 417.969 6.05012 417.895 5.90127C426.306 2.77538 435.09 2.32883 443.353 4.11505C443.204 4.33833 443.055 4.63603 442.906 4.93373C442.162 6.34782 441.268 8.2829 440.673 10.7389C439.184 17.4373 442.162 19.8189 445.288 19.3723C446.181 19.2235 446.851 18.7769 447.447 18.3304C451.466 15.1301 449.754 12.7484 458.24 10.5901C458.463 10.5157 458.612 10.5157 458.836 10.4412C465.684 14.8324 471.49 21.0841 475.361 28.8989C474.468 28.8244 473.5 28.75 472.16 28.5267Z" fill="#232846"/>
</g>
<defs>
<clipPath id="clip0_172_8945">
<rect width="482" height="444" fill="white"/>
</clipPath>
</defs>
</svg>
