<svg xmlns="http://www.w3.org/2000/svg" viewBox="0 0 153.63 49.97"><defs><style>.cls-1{fill:#fff;}.cls-2{fill:#006fcf;}.cls-3{fill:#162b75;}</style></defs><title>axp_bbl_mr_rgb_reg</title><g id="Layer_2" data-name="Layer 2"><g id="Layer_1-2" data-name="Layer 1"><rect class="cls-1" width="49.97" height="49.97"/><path class="cls-2" d="M31.81,35.48,30.61,34v1.52H27V33.33a5.12,5.12,0,0,1-1.57.23H24.9v1.92H19.64l-.89-1.26-.87,1.26H9.27V27h8.65l.87,1.24L19.68,27H50V0H0V19.73L1.7,15.84H5.1l1,2.19V15.84h4.15l.63,1.88.63-1.88H29.86v.85a4.08,4.08,0,0,1,2.62-.85h5.58l1,2.19V15.84h3.29l1.09,1.72V15.84h3.75v8.51H43.66L42.6,22.7v1.66H37.51L37,23.1H35.85l-.48,1.26h-3a4,4,0,0,1-2.52-.78v.78h-5l-1.2-1.52v1.52H4.54L4.06,23.1H2.88l-.48,1.26H0V50H50V35a3.59,3.59,0,0,1-1.89.52Z"/><path class="cls-2" d="M50,28.32l0,0H47a1.82,1.82,0,0,0-2,1.83,1.65,1.65,0,0,0,1.83,1.73h1.35a.54.54,0,1,1,0,1.07h-3v1.25h3A1.86,1.86,0,0,0,50,33a2,2,0,0,0,.13-.69,2,2,0,0,0-.13-.72,1.67,1.67,0,0,0-1.71-1H46.93a.52.52,0,0,1-.56-.54.52.52,0,0,1,.56-.53h2.53L50,28.32Zm-9.06,1.75a.52.52,0,0,1,.56-.53H44l.56-1.25h-3a1.82,1.82,0,0,0-2,1.83,1.65,1.65,0,0,0,1.83,1.73h1.35a.54.54,0,1,1,0,1.07h-3v1.25h3a1.83,1.83,0,0,0,2-1.88,1.61,1.61,0,0,0-1.83-1.69H41.51a.52.52,0,0,1-.56-.54Zm-6.73,4.1h4.72V32.92h-3.3V31.82h3.22V30.59H35.63V29.53h3.3V28.28H34.21v5.89Zm-.35,0-2-2.16a1.88,1.88,0,0,0-.45-3.73h-3.2v5.89h1.42V32.06h.66l1.75,2.11Zm-2.53-3.33H29.69v-1.3h1.65a.66.66,0,0,1,.74.66.65.65,0,0,1-.74.65Zm-3.82-.59a1.88,1.88,0,0,0-2-2H22.23v5.89h1.42V32.22h1.78a1.93,1.93,0,0,0,2.09-2Zm-1.43,0a.68.68,0,0,1-.74.72H23.65V29.53h1.69a.68.68,0,0,1,.74.72ZM22,34.17l-2.36-3L22,28.28H20.24L18.8,30.15l-1.44-1.87H15.59l2.36,2.94L15.6,34.17h1.72l1.45-1.89,1.44,1.89Zm-11.34,0h4.72V32.92h-3.3V31.82h3.22V30.59H12.06V29.53h3.3V28.28H10.64v5.89Z"/><path class="cls-2" d="M45.8,23V17.16H44.42v3.13l0,.71h0l-.4-.66-2.08-3.18H40.19V23h1.39V19.77l0-.7h0l.39.65L44.15,23Zm-7.49,0h1.61l-2.52-5.89H35.54L33,23h1.52l.5-1.24h2.78l.5,1.24Zm-1-2.37H35.49L36,19.29l.37-.93h0l.36.93.56,1.38Zm-4.94-2.24H34V17.16H32.31A2.66,2.66,0,0,0,29.49,20v.1A2.61,2.61,0,0,0,32.21,23h.08l.58-1.26h-.44a1.45,1.45,0,0,1-1.53-1.64v-.08a1.46,1.46,0,0,1,1.51-1.62ZM27.24,23h1.42V17.16H27.24V23Zm-.35,0-2-2.16a1.88,1.88,0,0,0-.45-3.73h-3.2V23h1.42V20.93h.66L25.13,23Zm-2.53-3.33H22.71v-1.3h1.65a.66.66,0,0,1,.74.66.65.65,0,0,1-.74.65ZM15.62,23h4.72V21.79H17V20.7h3.22V19.47H17V18.41h3.3V17.16H15.62V23Zm-2.48,0h1.38V17.16h-2.3l-1.14,3.41-.19.65h0l-.19-.65L9.52,17.16H7.23V23H8.61V19.18l0-.9h0l.29.9L10.23,23h1.29l1.35-3.86.29-.9h0l0,.9V23ZM5.35,23H7L4.44,17.16H2.57L.05,23H1.57l.5-1.24H4.85L5.35,23Zm-1-2.37H2.52l.56-1.38.37-.93h0l.36.93.56,1.38Z"/><path class="cls-3" d="M67.54,22.53V11.42H70l3,8.81h0l2.88-8.81h2.52v11.1H76.6V14.25h-.06a10.09,10.09,0,0,0-.44,1.07l-.4,1.14-2.12,6.07H72l-2.06-6L69.74,16l-.16-.52q-.08-.26-.15-.57t-.16-.71h0v8.36Z"/><path class="cls-3" d="M79.92,18.55a5.11,5.11,0,0,1,.17-1.36,4,4,0,0,1,.45-1.06,3.4,3.4,0,0,1,.66-.79,3.8,3.8,0,0,1,.8-.53,3.68,3.68,0,0,1,.86-.3,4,4,0,0,1,1.73,0,3.24,3.24,0,0,1,.82.3,3,3,0,0,1,.72.54,3.1,3.1,0,0,1,.57.81,4.71,4.71,0,0,1,.37,1.11,7,7,0,0,1,.13,1.45v.43H81.77a2.7,2.7,0,0,0,.2.94,1.86,1.86,0,0,0,.45.65,1.78,1.78,0,0,0,.66.38,2.65,2.65,0,0,0,.82.12,3.63,3.63,0,0,0,.7-.06,2.67,2.67,0,0,0,.58-.18,2.59,2.59,0,0,0,.5-.29,4.73,4.73,0,0,0,.46-.39l1,1a4.41,4.41,0,0,1-1.45,1.06,4.54,4.54,0,0,1-1.9.38,4.46,4.46,0,0,1-1.44-.23,3.3,3.3,0,0,1-1.23-.74,3.62,3.62,0,0,1-.85-1.29A5,5,0,0,1,79.92,18.55Zm1.88-.78h3.72A2.19,2.19,0,0,0,85,16.41a1.7,1.7,0,0,0-1.29-.46A2.21,2.21,0,0,0,83,16a1.59,1.59,0,0,0-.57.32,1.84,1.84,0,0,0-.44.57A2.61,2.61,0,0,0,81.8,17.77Z"/><path class="cls-3" d="M88.6,22.53v-8h1.85v1.09a4.36,4.36,0,0,1,.51-.48,3.64,3.64,0,0,1,.63-.4,3.5,3.5,0,0,1,.74-.27,3.57,3.57,0,0,1,.85-.1,3.37,3.37,0,0,1,.86.1,2,2,0,0,1,.61.27,1.67,1.67,0,0,1,.42.41,2.58,2.58,0,0,1,.29.53,4.72,4.72,0,0,1,.53-.49,3.88,3.88,0,0,1,.64-.42,3.66,3.66,0,0,1,.75-.29,3.37,3.37,0,0,1,.86-.11,2.81,2.81,0,0,1,1,.18,1.9,1.9,0,0,1,.72.49,2,2,0,0,1,.42.76,3.35,3.35,0,0,1,.14,1v5.71H98.62V17.27a2.83,2.83,0,0,0-.05-.57.92.92,0,0,0-.18-.4.77.77,0,0,0-.34-.23A1.66,1.66,0,0,0,97.5,16a2,2,0,0,0-1,.29,6.25,6.25,0,0,0-1,.75v5.51H93.61V17.27a2.83,2.83,0,0,0-.05-.57.92.92,0,0,0-.18-.4.77.77,0,0,0-.34-.23,1.66,1.66,0,0,0-.55-.08,1.94,1.94,0,0,0-.54.07,2.36,2.36,0,0,0-.5.21,4.29,4.29,0,0,0-.5.33c-.17.13-.33.27-.5.42v5.51Z"/><path class="cls-3" d="M102.13,22.53V11.42H104v4.19a3.9,3.9,0,0,1,.45-.45,3,3,0,0,1,.57-.38,3.32,3.32,0,0,1,.69-.26,3.24,3.24,0,0,1,.82-.1,3.1,3.1,0,0,1,1.26.26,2.69,2.69,0,0,1,1,.77,3.78,3.78,0,0,1,.66,1.29,6.17,6.17,0,0,1,.24,1.81,6,6,0,0,1-.25,1.81,3.57,3.57,0,0,1-.69,1.29,2.79,2.79,0,0,1-1.08.76,3.68,3.68,0,0,1-1.39.25,3.17,3.17,0,0,1-1.25-.25,2.82,2.82,0,0,1-1-.75v.89ZM104,20.19a2.53,2.53,0,0,0,.88.74,2.2,2.2,0,0,0,1,.25,1.72,1.72,0,0,0,1.51-.65,3.42,3.42,0,0,0,.46-2,3.06,3.06,0,0,0-.51-1.92,1.69,1.69,0,0,0-1.4-.65,1.88,1.88,0,0,0-.56.08,2.72,2.72,0,0,0-.53.22,2.91,2.91,0,0,0-.47.32A2.64,2.64,0,0,0,104,17Z"/><path class="cls-3" d="M110.65,18.55a5.11,5.11,0,0,1,.17-1.36,4,4,0,0,1,.45-1.06,3.4,3.4,0,0,1,.66-.79,3.8,3.8,0,0,1,.8-.53,3.68,3.68,0,0,1,.86-.3,4,4,0,0,1,1.73,0,3.24,3.24,0,0,1,.82.3,3,3,0,0,1,.72.54,3.1,3.1,0,0,1,.57.81,4.71,4.71,0,0,1,.37,1.11,7,7,0,0,1,.13,1.45v.43H112.5a2.7,2.7,0,0,0,.2.94,1.86,1.86,0,0,0,.45.65,1.78,1.78,0,0,0,.66.38,2.65,2.65,0,0,0,.82.12,3.63,3.63,0,0,0,.7-.06,2.67,2.67,0,0,0,.58-.18,2.59,2.59,0,0,0,.5-.29,4.73,4.73,0,0,0,.46-.39l1,1a4.41,4.41,0,0,1-1.45,1.06,4.54,4.54,0,0,1-1.9.38,4.46,4.46,0,0,1-1.44-.23,3.3,3.3,0,0,1-1.23-.74,3.62,3.62,0,0,1-.85-1.29A5,5,0,0,1,110.65,18.55Zm1.88-.78h3.72a2.19,2.19,0,0,0-.53-1.37,1.7,1.7,0,0,0-1.29-.46,2.21,2.21,0,0,0-.65.1,1.59,1.59,0,0,0-.57.32,1.84,1.84,0,0,0-.44.57A2.61,2.61,0,0,0,112.52,17.77Z"/><path class="cls-3" d="M119.33,22.53v-8h1.85v1.3h0a3.11,3.11,0,0,1,.44-.56,2.8,2.8,0,0,1,.61-.46,3.32,3.32,0,0,1,.8-.31,4,4,0,0,1,1-.12h.13l-.06,1.69h-.5a3.09,3.09,0,0,0-.81.1,2.48,2.48,0,0,0-.67.29,2.61,2.61,0,0,0-.54.45,3.54,3.54,0,0,0-.44.58v5Z"/><path class="cls-3" d="M124.85,21.44l1-1.12a4.5,4.5,0,0,0,.5.36,3.76,3.76,0,0,0,.59.3,4.08,4.08,0,0,0,.67.21,3.42,3.42,0,0,0,.74.08,2.66,2.66,0,0,0,1.17-.21.73.73,0,0,0,.42-.71.61.61,0,0,0-.14-.41,1.17,1.17,0,0,0-.38-.29,2.9,2.9,0,0,0-.56-.2l-.66-.16-.68-.17a6.65,6.65,0,0,1-.71-.22,4,4,0,0,1-.66-.31,2.12,2.12,0,0,1-.51-.43,1.93,1.93,0,0,1-.35-.59,2.3,2.3,0,0,1-.13-.8,2.14,2.14,0,0,1,.22-1,2.2,2.2,0,0,1,.6-.74,2.86,2.86,0,0,1,.93-.48,4.07,4.07,0,0,1,1.21-.17,6.34,6.34,0,0,1,1,.08,4.63,4.63,0,0,1,.86.22,4.09,4.09,0,0,1,.73.36,5.17,5.17,0,0,1,.65.47l-.88,1.2a3.81,3.81,0,0,0-.5-.33,4.55,4.55,0,0,0-.58-.27,4.41,4.41,0,0,0-.61-.19,2.61,2.61,0,0,0-.58-.07,2.82,2.82,0,0,0-.64.06,1.24,1.24,0,0,0-.42.17.65.65,0,0,0-.22.26.79.79,0,0,0-.07.32.59.59,0,0,0,.15.41,1.22,1.22,0,0,0,.41.29,2.88,2.88,0,0,0,.54.19l.65.16.65.16c.23.06.47.13.71.21a3.55,3.55,0,0,1,.66.3,2.17,2.17,0,0,1,.52.43,1.89,1.89,0,0,1,.35.6,2.35,2.35,0,0,1,.13.81,2.14,2.14,0,0,1-.26,1.09,2.26,2.26,0,0,1-.72.76,3.34,3.34,0,0,1-1.06.45,5.37,5.37,0,0,1-1.29.15,6,6,0,0,1-1.07-.09,5.8,5.8,0,0,1-1-.26,4.78,4.78,0,0,1-.83-.4A3.32,3.32,0,0,1,124.85,21.44Z"/><path class="cls-3" d="M133,22.53V11.42h1.85v4.22a3.82,3.82,0,0,1,.47-.42,3.69,3.69,0,0,1,.64-.4,4.2,4.2,0,0,1,.82-.3,4,4,0,0,1,1-.12,2.71,2.71,0,0,1,.94.15,1.91,1.91,0,0,1,.72.46,2,2,0,0,1,.46.75,3.06,3.06,0,0,1,.16,1v5.71h-1.85V17.27a1.41,1.41,0,0,0-.29-1A1.17,1.17,0,0,0,137,16a2.33,2.33,0,0,0-1.13.29,5.27,5.27,0,0,0-1,.75v5.51Z"/><path class="cls-3" d="M142,13.18V11.61h1.88v1.57Zm0,9.35v-8h1.85v8Z"/><path class="cls-3" d="M146.09,25.53v-11h1.85v1a3.9,3.9,0,0,1,.45-.45,3,3,0,0,1,.57-.38,3.32,3.32,0,0,1,.69-.26,3.24,3.24,0,0,1,.82-.1,3.1,3.1,0,0,1,1.26.26,2.69,2.69,0,0,1,1,.77,3.78,3.78,0,0,1,.66,1.29,6.17,6.17,0,0,1,.24,1.81,6,6,0,0,1-.25,1.81,3.57,3.57,0,0,1-.69,1.29,2.79,2.79,0,0,1-1.08.76,3.68,3.68,0,0,1-1.39.25,3.17,3.17,0,0,1-1.25-.25,2.82,2.82,0,0,1-1-.75v3.89Zm1.85-5.34a2.53,2.53,0,0,0,.88.74,2.2,2.2,0,0,0,1,.25,1.72,1.72,0,0,0,1.51-.65,3.42,3.42,0,0,0,.46-2,3.06,3.06,0,0,0-.51-1.92,1.69,1.69,0,0,0-1.4-.65,1.88,1.88,0,0,0-.56.08,2.72,2.72,0,0,0-.53.22,2.91,2.91,0,0,0-.47.32,2.64,2.64,0,0,0-.38.38Z"/><path class="cls-3" d="M67.71,37.53V26.42h3.71a6.25,6.25,0,0,1,1.64.2,3.37,3.37,0,0,1,1.21.57,2.46,2.46,0,0,1,.75.94,3.07,3.07,0,0,1,.26,1.29,3.4,3.4,0,0,1-.19,1.19,2.56,2.56,0,0,1-.54.88,2.77,2.77,0,0,1-.84.6,4.37,4.37,0,0,1-1.09.34l2.81,5.1h-1.2l-2.71-5H68.74v5Zm1-5.93h2.6a6.32,6.32,0,0,0,1.22-.11,2.42,2.42,0,0,0,.9-.36,1.6,1.6,0,0,0,.56-.66,2.4,2.4,0,0,0,.19-1,2.28,2.28,0,0,0-.19-1,1.56,1.56,0,0,0-.55-.64,2.49,2.49,0,0,0-.91-.35,6.48,6.48,0,0,0-1.24-.11H68.74Z"/><path class="cls-3" d="M76.27,33.56a4.89,4.89,0,0,1,.31-1.82,3.84,3.84,0,0,1,.8-1.28,3.22,3.22,0,0,1,1.11-.75,3.34,3.34,0,0,1,1.24-.25,3.12,3.12,0,0,1,1.28.26,2.8,2.8,0,0,1,1,.78,3.75,3.75,0,0,1,.68,1.29A5.87,5.87,0,0,1,83,33.58v.2H77.3a4.14,4.14,0,0,0,.21,1.31A2.92,2.92,0,0,0,78,36a2.25,2.25,0,0,0,.79.59,2.33,2.33,0,0,0,1,.2,3.11,3.11,0,0,0,.79-.1,2.5,2.5,0,0,0,.65-.28,2.58,2.58,0,0,0,.54-.45,4.68,4.68,0,0,0,.47-.62l.64.52a4.82,4.82,0,0,1-.58.75,3.26,3.26,0,0,1-1.56.92,4.06,4.06,0,0,1-1,.12,3.35,3.35,0,0,1-1.31-.26,3.11,3.11,0,0,1-1.1-.79,3.83,3.83,0,0,1-.76-1.29A5.24,5.24,0,0,1,76.27,33.56Zm1-.62H82a4.56,4.56,0,0,0-.2-1,2.55,2.55,0,0,0-.43-.83,2,2,0,0,0-.68-.55,2.07,2.07,0,0,0-.93-.2,2.25,2.25,0,0,0-.83.16,2.09,2.09,0,0,0-.72.48,2.77,2.77,0,0,0-.55.82A3.8,3.8,0,0,0,77.32,32.95Z"/><path class="cls-3" d="M83.69,29.62h1.08l1.09,3.91.19.7.18.64.18.64.2.71h0l.21-.75.17-.63.17-.62.19-.69,1.07-3.91h1l1.07,4,.18.68.16.6.17.62.19.7h0l.19-.72.17-.61.17-.59.19-.65,1.14-4h1l-2.42,7.9h-1L88.92,31h-.07L87,37.53h-.91Z"/><path class="cls-3" d="M94.6,35.68a2.26,2.26,0,0,1,.27-1.09,2.64,2.64,0,0,1,.9-.92,6.72,6.72,0,0,1,1.65-.74,17.2,17.2,0,0,1,2.53-.56V32a1.65,1.65,0,0,0-.41-1.23,1.63,1.63,0,0,0-1.19-.4,3.73,3.73,0,0,0-.87.1,4.16,4.16,0,0,0-.76.26,4.51,4.51,0,0,0-.68.39,7.2,7.2,0,0,0-.63.5l-.56-.65a6.61,6.61,0,0,1,.74-.6,5,5,0,0,1,.83-.46,4.86,4.86,0,0,1,.95-.3,5.29,5.29,0,0,1,1.09-.11,3.43,3.43,0,0,1,1.14.17,2,2,0,0,1,.79.5,2,2,0,0,1,.46.79A3.51,3.51,0,0,1,101,32v3.59a11.75,11.75,0,0,0,0,1.19,2.83,2.83,0,0,0,.17.77h-1.07A4.49,4.49,0,0,1,100,37a3.29,3.29,0,0,1-.05-.62,5.07,5.07,0,0,1-1.46.95,4.28,4.28,0,0,1-1.66.32,2.4,2.4,0,0,1-1.65-.53A1.85,1.85,0,0,1,94.6,35.68Zm1-.13a1.15,1.15,0,0,0,.38.94,1.59,1.59,0,0,0,1,.32,3.72,3.72,0,0,0,1.56-.33,4.82,4.82,0,0,0,1.33-.91V33.1a15.92,15.92,0,0,0-2.1.48,5.94,5.94,0,0,0-1.33.57,2,2,0,0,0-.7.66A1.47,1.47,0,0,0,95.63,35.54Z"/><path class="cls-3" d="M103.36,37.53v-7.9h1v1.56h0a3.92,3.92,0,0,1,.53-.68,3.31,3.31,0,0,1,.68-.54,3.5,3.5,0,0,1,.86-.36,4,4,0,0,1,1.06-.13h.18l-.1,1h-.31a3,3,0,0,0-1.73.52,3.73,3.73,0,0,0-1.2,1.46v5.14Z"/><path class="cls-3" d="M108.4,33.57a5.73,5.73,0,0,1,.26-1.8,3.62,3.62,0,0,1,.71-1.28,2.9,2.9,0,0,1,1.06-.76,3.4,3.4,0,0,1,1.32-.26,2.92,2.92,0,0,1,.74.09,3.54,3.54,0,0,1,1.29.64,4.66,4.66,0,0,1,.52.48V26.42h1v9.16a10.74,10.74,0,0,0,.05,1.18,2.69,2.69,0,0,0,.18.77h-1.08a4.37,4.37,0,0,1-.12-.52,3.5,3.5,0,0,1-.06-.64,6,6,0,0,1-.52.5,3.54,3.54,0,0,1-.6.41,3.24,3.24,0,0,1-.7.28,3.13,3.13,0,0,1-.83.1,3.25,3.25,0,0,1-1.27-.25,2.8,2.8,0,0,1-1-.76,3.64,3.64,0,0,1-.7-1.28A5.82,5.82,0,0,1,108.4,33.57Zm1,0a4.69,4.69,0,0,0,.19,1.41,3,3,0,0,0,.51,1,2,2,0,0,0,.76.59,2.31,2.31,0,0,0,.94.19,2.57,2.57,0,0,0,.69-.09,2.9,2.9,0,0,0,.63-.26,3.75,3.75,0,0,0,.58-.41,6.24,6.24,0,0,0,.56-.54V31.63a4.93,4.93,0,0,0-1.18-1,2.58,2.58,0,0,0-1.28-.33,2.36,2.36,0,0,0-1,.19,2,2,0,0,0-.76.6,2.9,2.9,0,0,0-.5,1A5.24,5.24,0,0,0,109.43,33.58Z"/><path class="cls-3" d="M117.1,36.27l.66-.6a3.57,3.57,0,0,0,1,.83,3,3,0,0,0,1.41.31,2.7,2.7,0,0,0,1.54-.36,1.18,1.18,0,0,0,.52-1,1.24,1.24,0,0,0-.12-.57,1.14,1.14,0,0,0-.38-.41,2.48,2.48,0,0,0-.68-.31l-1-.29-1.19-.37A2.75,2.75,0,0,1,118,33a1.7,1.7,0,0,1-.52-.62,2,2,0,0,1-.17-.88,1.86,1.86,0,0,1,.18-.8,1.91,1.91,0,0,1,.52-.66,2.52,2.52,0,0,1,.84-.45,3.6,3.6,0,0,1,1.14-.17,5.09,5.09,0,0,1,.93.08,3.82,3.82,0,0,1,.78.23,3.51,3.51,0,0,1,.66.36,4.91,4.91,0,0,1,.56.47l-.59.69a3.54,3.54,0,0,0-1-.71,3,3,0,0,0-1.29-.26,2.71,2.71,0,0,0-.79.1,1.54,1.54,0,0,0-.53.26,1,1,0,0,0-.4.81,1.07,1.07,0,0,0,.11.49,1,1,0,0,0,.34.37,2.13,2.13,0,0,0,.6.27l.88.27,1.3.4a3,3,0,0,1,.95.46,1.85,1.85,0,0,1,.57.68,2.26,2.26,0,0,1,.19,1,2,2,0,0,1-.23,1,2.09,2.09,0,0,1-.64.71,3,3,0,0,1-1,.44,4.84,4.84,0,0,1-1.23.15,4.53,4.53,0,0,1-1-.11,4.14,4.14,0,0,1-.86-.29,3.55,3.55,0,0,1-.71-.44A3.12,3.12,0,0,1,117.1,36.27Z"/><path class="cls-3" d="M123.08,28.38a1.48,1.48,0,1,1,1.48,1.49A1.48,1.48,0,0,1,123.08,28.38Zm2.75,0a1.27,1.27,0,1,0-1.26,1.28A1.27,1.27,0,0,0,125.83,28.38ZM124,27.53h.58c.38,0,.59.17.59.47a.43.43,0,0,1-.35.46l.39.72H125l-.37-.69h-.31v.69H124Zm.57.75c.22,0,.35-.06.35-.26s-.13-.26-.36-.26h-.31v.52Z"/></g></g></svg>