<?xml version="1.0" encoding="UTF-8"?>
<svg version="1.1" viewBox="0 0 988 888" width="247" height="222" xmlns="http://www.w3.org/2000/svg">
<path transform="translate(0)" d="m0 0h988v888h-988z" fill="none"/>
<path transform="translate(390,92)" d="m0 0h38l28 1 2 3v12l4-1h36l15 3 13 5 5 5-1 5-15 15-8 10h-2l-2 4-5 4-3 2-6 2-19 7-7 3-5 1h-17l-16-6-4 20-7 23-1 1v8l2 3v10l11-2h10l4 4 4 8 1 11-5 4-10 3-1 1h-9l-3-3-5-9-1-4-2-1 1 8 2 5 3 13 8 27 14 42 4 9 9 23 4 10 8 17 3 5v3h2l3 6v2h2l7 11 7 8 2 1v2l4 1 14 9v2l5 2 12 9 5 4 3 1v2l4 2 13 9 13 10 8 7 8 6 3 2 5-1 7-8 8-7 12-9 9-5 10-4 6-1h9l3 1v2h2v2l3 1-1 5-6 3-13 2-14 7-14 12-9 10 1 5 11 10 7 6 1 2v18l-2 35 37-6 11-2h9l11 10 8 7 11 10 8 7 14 12 17 16 8 7 15 14 8 7 17 16 8 8 8 7 16 15 17 16 10 10 7 6 1 8h-31l-19-1-22-2-43-3-48-3-20-2-58-4-9-1-1 17-5 51-1 10h-5v-2h-8l-10-2v-2h-9l-66-14v-2h-9l-32-7-1-1-14-2-5-2-19-3-42-9-1-1-23-4-90-19-66-14-74-16-19-4-6-2-8-1-1-1-16-3-10-2-12-3-12-2-1-1-9-2-1-5 14-9 12-7 13-8 16-10 15-9 11-6 13-8 5-2 3-3 9-5 15-9h3v-2l10-6 11-6 9-6 11-6 20-12 14-8 7-5 8-4 11-7 12-7 8-5h3v-2h2l1-24 4-45 1-18v-37l-2-16-2-17v-28l4-28 6-24 4-9 4-12h2l1-7 5-12 4-7 5-14 2-16 5-11 6-4 3-5 2-16-19-3-21-5v-2l-5-1-10-5v-2l-4-2-6-5-4-7-3-6v-19l5-6 5-2 29-3h6l2-4 4-6 7-6 4-1v-2l6-3 7-2 7-3 9-2h28z" fill="#838484"/>
<path transform="translate(663,583)" d="m0 0h8l11 11 11 9 8 8 11 9 9 9 11 9 9 9 8 7 3 2v2l4 2 9 9 8 7 9 9 2 1v2l4 2 9 9 8 7 15 14 17 16 11 11 5 3v2h-12l-33-2-43-3-38-3-70-5-8-1-42-1-414-30-61-4-79-6-11-2 3-3 34-6 18-3 34-6 19-3 29-5 25-5 96-17 37-6 8-2h4v3l-12 8-3 4v7l4 5 7 3h17l19-5 25-7 27-5 18-3 20-4 40-7 34-9 15-6 4-3v-3l-6-1-22-1-10-2-3-2 1-3 27-5 62-11 36-6z" fill="#57EEC5"/>
<path transform="translate(405,341)" d="m0 0h2l1 15-1 24-4 28-11 54-3 20-1 11-1 44 5 5 13 9 5 3h2l-5-8-7-24-1-6v-24l5-14 6-8 8-7 10-3h21l15 4 13 7 14 11 8 9 2 5-4-1-11-12-9-8-10-6-12-4-6-1h-19l-11 3-7 6-6 10-3 9-1 6v10l3 19 6 16 9 15 8 10 9 9 8 6 15 9 22 13 14 10 6 1v2l-11 4-20 4-8 1-28 1-6 5-3 6 1 5 4 2 5-12 5-5h2l-1 5-4 6-1 8 10-1 32-6 27-6 18-5 6-2-3-9-7-8-12-11-4-3v-2l-3-1-7-8-12-13-11-14-8-13-3-9v-5l3-1 3 12 10 16 9 11 11 12 7 8 11 10 4 3h3l9-13 5-12 2-12 1-14 1-2h2l2 7 3 6h5l10-9 13-16 12-17 2-3h2l1-4 2-3 5-2-1 7 7 7 10 8 3 4v18l-2 35 37-6 11-2h9l11 10 8 7 11 10 8 7 14 12 17 16 8 7 15 14 8 7 17 16 8 8 8 7 16 15 17 16 10 10 7 6 1 8h-31l-19-1-22-2-43-3-48-3-20-2-58-4-9-1-1 17-5 51-1 10h-5v-2h-8l-10-2v-2h-9l-66-14v-2h-9l-32-7-1-1-14-2-5-2-19-3-42-9-1-1-23-4-90-19-66-14-74-16-19-4-6-2-8-1-1-1-16-3-10-2-12-3-12-2-1-1-9-2-1-5 14-9 12-7 13-8 16-10 15-9 11-6 13-8 5-2 3-3 9-5 15-9h3v-2l10-6 11-6 9-6 11-6 20-12 14-8 7-5 8-4 11-7 12-7 8-5h3v-2l2-1 2-6h1l-1 24-5 19-8 17-5 6-22 3-8 4-6 5-5 8 1 4 4 2h5l4-11 4-5 6-3 7 1 1 3h-7l-7 5-2 5v5l15-1 9-2 6-4 11-15 9-17 7-20 7-28 4-19 2-13h2l2-10 5-17v-23l-3-21-9-27-6-19-5-25v-13h2l2 12 5 26 9 27 7 16 10 19 8 16 9 19 4 8-2-22-3-20-5-13-19-38v-3l3 1 10 20 6 10 8 19 3 19 3 27v19h-2l-4-13-8-16-6-10-6-17v-2h-3l-1 8-3 15h-2l-1 9-2 5-3 15-1 1-2 12 3 1-5 7-7 30-5 18-7 16-7 13v3h14l1 5-10 4-19 6-7 3-15 3h-17l-7-3-3-3v-7l6-9 9-7 15-3 13-2 5-8 5-12 4-13 2-16h-3l-27 16-24 14-13 8-95 57-39 23-21 13-17 10 9-2 9-3 34-9 29-8 81-21 44-12 24-7 35-9 34-9h7l5-1 2 9-2 16-3 4-15 4-1 3-37 6-107 19-20 4-23 4-49 8-14 3-36 6-7 2 9 2 79 6 61 4 390 28 24 2 42 1 22 2 85 6 24 2 41 3 32 2v-2l-5-2-20-20-8-7-9-9-8-7-15-14-4-3v-2l-4-2-13-13-8-7-7-6v-2l-4-2-16-15-15-13-14-13-8-7-11-10-8-7-5-5h-8l-36 7-19 3-80 14-4 1v2l5 2 7 1 22 1 7 2-1 4-7 4-12 5-34 9-57 10-13 3-30 5-27 7-11 3-1-3 1-4 4-10 1-6 1-74 4-39 2-41 3-28 12-59 3-20z" fill="#2D2A44"/>
<path transform="translate(390,92)" d="m0 0h38l28 1 2 3v12l4-1h36l15 3 13 5 5 5-1 5-15 15-8 10h-2l-2 4-5 4-3 2-6 2-19 7-7 3-5 1h-17l-16-6-4 20-7 23-1 1v8l2 3v10l11-2h10l4 4 4 8 1 11-5 4-10 3-1 1h-9l-3-3-5-9-1-4-2-1 1 8 2 5 3 13 8 27 8 24v6l-2-1-2-7h-2l-2-7v-5h-2l-5-17-3-9-2-9-4-17v-3h-13l-18 2h-9l-16-2-15-5-8-4-5 1v-14l4-11 2-4 6-4 3-5 2-16-19-3-21-5v-2l-5-1-10-5v-2l-4-2-6-5-4-7-3-6v-19l5-6 5-2 29-3h6l2-4 4-6 7-6 4-1v-2l6-3 7-2 7-3 9-2h28z" fill="#838484"/>
<path transform="translate(663,583)" d="m0 0h8l11 11 11 9 8 8 11 9 9 9 11 9 9 9 8 7 3 2v2l4 2 9 9 8 7 9 9 2 1v2l4 2 9 9 8 7 15 14 17 16 12 12-4 1h-18l-35-3-31-2-27-2-31-2-20-2-28-2-8-2-5-4v-2h-2l-1-5 2-5 2 1 2-8v-15l-2-16-1-11-1-5v-14l2-33-4-18 3-7v-2h-3v-2z" fill="#00E8A3"/>
<path transform="translate(405,341)" d="m0 0h2l1 15-1 24-4 28-11 54-3 20-1 11-1 44 5 5 13 9 5 3h2l-5-8-7-24-1-6v-24l5-14 6-8 8-7 10-3h21l15 4 13 7 14 11 8 9 2 5-4-1-11-12-9-8-10-6-12-4-6-1h-19l-11 3-7 6-6 10-3 9-1 6v10l3 19 6 16 9 15 8 10 9 9 8 6 15 9 22 13 14 10 6 1v2l-11 4-20 4-8 1-28 1-6 5-3 6 1 5 4 2 5-12 5-5h2l-1 5-4 6-1 8 10-1 32-6 27-6 18-5 6-2-3-9-7-8-12-11-4-3v-2l-3-1-7-8-12-13-11-14-8-13-3-9v-5l3-1 3 12 10 16 9 11 11 12 7 8 11 10 4 3h3l9-13 5-12 2-12 1-14 1-2h2l2 7 3 6h5l10-9 13-16 12-17 2-3h2l1-4 2-3 5-2-1 7 7 7 10 8 3 4v18l-2 35 37-6 11-2h9l11 10 8 7 11 10 8 7 14 12 17 16 8 7 15 14 8 7 17 16 8 8 8 7 16 15 17 16 10 10 7 6 1 8h-31l-19-1-22-2-43-3-48-3-20-2-58-4-9-1v-1h11l29 2h9l-1-1-33-2v-1h28l22 2 85 6 24 2 41 3 32 2v-2l-5-2-20-20-8-7-9-9-8-7-15-14-4-3v-2l-4-2-13-13-8-7-7-6v-2l-4-2-16-15-15-13-14-13-8-7-11-10-8-7-5-5h-8l-36 7-19 3-80 14-4 1v2l5 2 7 1 22 1 7 2-1 4-7 4-12 5-34 9-57 10-13 3-30 5-27 7-11 3-1-3 1-4 4-10 1-6 1-74 4-39 2-41 3-28 12-59 3-20z" fill="#2C2943"/>
<path transform="translate(300,351)" d="m0 0h2l2 12 5 26 9 27 7 16 10 19 8 16 9 19 4 8-2-22-3-20-5-13-19-38v-3l3 1 10 20 6 10 8 19 3 19 3 27v19h-2l-4-13-8-16-6-10-6-17v-2h-3l-1 8-3 15h-2l-1 9-2 5-3 15-1 1-2 12 3 1-5 7-7 30-5 18-7 16-7 13v3h14l1 5-10 4-19 6-7 3-15 3h-17l-7-3-3-3v-7l6-9 9-7 15-3 13-2 5-8 5-12 4-13 2-16h-3l-27 16-24 14-13 8-95 57-39 23-21 13-17 10 9-2 9-3 34-9 29-8 81-21 44-12 24-7 35-9 34-9h7l5-1 2 9-2 16-3 4-15 4-1 3-37 6-107 19-20 4-23 4-49 8-14 3-36 6-7 2 9 2 79 6 61 4 390 28 54 4 17 1 3 2-2 1-22-1-16-1h-11l-2 14-2 1-13-2-213-21-65-6-70-7-15-1-25-3-36-3h-13l-28-3-13-2-2-1-5 1 13 3-1 4h-10l-6-2-8-1-1-1-16-3-10-2-12-3-12-2-1-1-9-2-1-5 14-9 12-7 13-8 16-10 15-9 11-6 13-8 5-2 3-3 9-5 15-9h3v-2l10-6 11-6 9-6 11-6 20-12 14-8 7-5 8-4 11-7 12-7 8-5h3v-2l2-1 2-6h1l-1 24-5 19-8 17-5 6-22 3-8 4-6 5-5 8 1 4 4 2h5l4-11 4-5 6-3 7 1 1 3h-7l-7 5-2 5v5l15-1 9-2 6-4 11-15 9-17 7-20 7-28 4-19 2-13h2l2-10 5-17v-23l-3-21-9-27-6-19-5-25z" fill="#191625"/>
<path transform="translate(345,507)" d="m0 0 4 2 8 13 1 3v44l-4 1-13-3-7 1-5 4-3 6v8l4 5 7 3h9l8-2 5 1v10l-15 5-56 15-20 5-24 7-68 18-76 20-32 9-12 3-8 3-4-1 16-10 17-10 13-8 44-26 90-54 13-8 19-11 25-15 3-1 1 4-3 18-6 17-6 11-5 3-22 3-9 5-6 7-2 4v7l5 4 4 1h17l15-3 12-5 20-6 3-1v-4h-14l-1-4 11-21 6-18 7-29 3-11 8-6z" fill="#8D71F4"/>
<path transform="translate(405,341)" d="m0 0h2l1 15-1 24-4 28-11 54-3 20-1 11-1 44 5 5 13 9 5 3h2l-5-8-7-24-1-6v-24l5-14 6-8 8-7 10-3h21l15 4 13 7 14 11 8 9 2 5-4-1-11-12-9-8-10-6-12-4-6-1h-19l-11 3-7 6-6 10-3 9-1 6v10l3 19 6 16 9 15 8 10 9 9 8 6 15 9 22 13 14 10 6 1v2l-11 4-20 4-13 1v-1l-13-1v-4l-20 3-23 5 26-4-2 4-5 5-1 7 3 5v3l-13 3-18 3-5-1-7-2 1-4 1-15 3-1-4-2v-31l1-1-3-2v-26l4-39 2-41 3-28 12-59 3-20z" fill="#2C2943"/>
<path transform="translate(470,417)" d="m0 0 5 2 8 11 5 4v2l4 1 14 9v2l5 2 12 9 5 4 3 1v2l4 2 13 9 13 10 8 7 8 6 3 2 5-1 7-8 8-7 12-9 9-5 10-4 6-1h9l3 1v2h2v2l3 1-1 5-6 3-13 2-14 7-14 12-7 8-6 2-3 6h-2l-2 4-12 17-13 16-7 7-3 2h-5l-5-8v-6h-2l-1 16h-1l-2-23-7-26-9-24-9-17-14-21-26-36z" fill="#1A1625"/>
<path transform="translate(354,606)" d="m0 0h2l2 9-2 16-3 4-15 4-1 3-37 6-107 19-20 4-23 4-16 2v-2l-17 2-15 2h-16v2l-24 4h-6l3-2 23-6 44-12 81-21 44-12 24-7 35-9 34-9h7z" fill="#2B2843"/>
<path transform="translate(183,707)" d="m0 0h24l376 27 54 4 17 1 3 2-2 1-22-1-16-1h-11l-2 10-1 2-16-1-33-3-6-1-25-2-52-5-124-12-46-5-31-3-36-4-23-2-17-3-11-1z" fill="#030205"/>
<path transform="translate(345,507)" d="m0 0 4 2 8 13 1 3v44l-4 1-13-3-7 1-5 4-3 6v8l4 5 7 3h9l8-2 5 1v10l-15 5-10 2-9 1-17 4h-5-4l3-2v-4h-14l-1-4 11-21 6-18 7-29 3-11 8-6z" fill="#7555FB"/>
<path transform="translate(530,121)" d="m0 0 1 2-7 8-9 9-8 10h-2l-2 4-5 4-3 2-6 2-19 7-7 3-5 1h-17l-16-6-4 20-7 23-1 1v8l2 3v10l11-2h10l4 4 4 8 1 11-5 4-10 3-1 1h-9l-3-3-5-9-1-4-2-1 1 8 2 5 3 13 8 27 8 24v6l-2-1-2-7h-2l-2-7v-5h-2l-5-17-3-9-2-9-4-17v-3h-13l-18 2h-9l-16-2-15-5-8-4-5 1v-14l4-11 2-4 6-4 1-2h3l-2 7v5l6 5 13 4 6 1h21l14-3 8-4 3-5 5-24 3-9 2-8v-13l-9-3-6-5-2-4v-14h3l2 15 4 4 16 4 9 3 8 3h16l19-7 10-2 10-6 7-7 7-8 11-12 4-4z" fill="#16131D"/>
<path transform="translate(597,509)" d="m0 0v3l1 5 11 10 7 6 1 3-3 3-16 1 1-2 13-3v-2l-4-2-13-11-4 2-12 16-4 5h-2l-1 5-14 15-5 5-15 11-4 13-6 10-1 3 24-4 28-5 21-4 9-2 2-3 1 2h10v2l-36 7-58 10-4 1v2l5 2 7 1 22 1 7 2-1 4-7 4-12 5-34 9-57 10-13 3-30 5-27 7-11 3-1-3 1-4 4-10 1-6 1-48 5 1-2 2v31l7 1-4 2h-3v15l-2 4 7 1 5 1 23-4 8-1-4-8 2-9 6-5 1-2-18 4-11 2h-8v-1l26-5 12-3 7-1h9v4h17l-4 2-23 1-6 5-3 6 1 5 4 2 5-12 5-5h2l-1 5-4 6-1 8 10-1 32-6 27-6 18-5 6-2-3-9-7-8-12-11-4-3v-2l-3-1-7-8-12-13-11-14-8-13-3-9v-5l3-1 3 12 10 16 9 11 11 12 7 8 11 10 4 3h3l9-13 5-12 2-12 1-14 1-2h2l2 7 3 6h5l10-9 13-16 12-17 2-3h2l1-4 2-3z" fill="#0E0A12"/>
<path transform="translate(331,455)" d="m0 0h3l4 11 4 9 15 30 1 8h2v-5h1v107l-2 14-4 10-9 10-1 5v8l5 5 4 1-2-5-1-7 6-7 7-1v3l-7 3v8l4 4 9-3 2-1 1 5-11 3h-17l-8-4-4-5v-7l4-5 10-7h2v-3l-13 2 2-3 15-4 2-3 2-16-1-9-5 2h-5l2-2 11-3-1-10-8 1-4 1h-9l-8-4-4-5v-8l5-8 4-3 7-1 13 3h3v-44l-5-10-5-7-6 2-19 11-5 2 1-2-2-1 1-12 3-9 1-7 3-8 1-6h2v-7z" fill="#15121E"/>
<path transform="translate(493,443)" d="m0 0 7 3 19 14 18 13 16 13 16 12 10 8-2 5-12 14-8 10-6 7-9 7h-2l-4-16-6-20-8-21-9-17-7-11-8-12-5-7z" fill="#7555FB"/>
<path transform="translate(156,620)" d="m0 0 4 1 2 6 2 2-2 6 1 7 6 5 2 1h9l6 1-2 2-84 22-32 9-12 3-8 3-4-1 16-10 17-10 13-8 44-26 20-12z" fill="#A392DC"/>
<path transform="translate(122,675)" d="m0 0h12v2l-19 4-25 4-21 4-24 4-1 1 9 2 79 6 61 4v1l-9 1v1l24 3 3 1 53 5 24 3 31 3 80 8 65 6 28 3 40 4 16 1 17 2 38 4 1-2-1 5-14-2-213-21-65-6-70-7-15-1-25-3-36-3h-13l-28-3-13-2-2-1-5 1 13 3-1 4h-10l-6-2-8-1-1-1-16-3-10-2-12-3-12-2-1-1-9-2-1-5 6-4 6 1 12-4 24-4h8v-2l12-1 14-1z" fill="#120E16"/>
<path transform="translate(405,341)" d="m0 0h2l1 15-1 24-4 28-11 54-3 20-1 11-1 44 5 5 13 9 5 3h2l-5-8-7-24-1-6v-24l5-14 6-8 8-7 10-3h21l15 4 13 7 14 11 8 9 2 5-4-1-11-12-9-8-10-6-12-4-6-1h-19l-11 3-7 6-6 10-3 9-1 6v10l3 19 6 16 9 15 8 10 9 9 8 6 15 9 22 13-1 2-17-9-21-13-5-1-13 4h-5l1-2 15-4v-1l-7 1-7 2-12 2-7 1 1-3 10-4 4-3 1-8-2-5-5-2-8-6-14-9-5-3-1 3 4 2 15 12 5 5-1 4-9 3-16 2v14h8l-3 2-8 2v-23l4-39 2-41 3-28 12-59 3-20z" fill="#120E19"/>
<path transform="translate(616,536)" d="m0 0h1v17l-2 35 37-6 11-2h9l11 10 8 7 11 10 8 7 14 12 17 16 8 7 15 14 8 7 17 16 8 8 8 7 16 15 17 16 10 10 7 6 1 8h-31l-19-1-22-2-43-3-48-3-20-2-58-4-9-1v-1h11l29 2h9l-1-1-33-2v-1h28l22 2 85 6 24 2 41 3 32 2v-2l-5-2-20-20-8-7-9-9-8-7-15-14-4-3v-2l-4-2-13-13-8-7-7-6v-2l-4-2-16-15-15-13-14-13-8-7-11-10-8-7-5-5h-8l-36 7h-5v-2h-8v-28z" fill="#3B384C"/>
<path transform="translate(764,478)" d="m0 0h34l92 1h62l1 3-2 3-28 1-107 1h-95l-2-4 3-4z" fill="#E9EFFA"/>
<path transform="translate(283,544)" d="m0 0 2 4-3 18-6 17-6 11-5 3-22 3-6 2v-2l-2-1 1-13-3-1-5-5-2 1-2-2 13-8 19-11 25-15z" fill="#7555FB"/>
<path transform="translate(794,630)" d="m0 0h107l17 1 4 2-1 7-5 3-95 1h-23l-9-3-1-1v-6l3-3z" fill="#FEF9F1"/>
<path transform="translate(390,92)" d="m0 0h38l28 1 2 3v12l4-1h36l15 3 13 5 3 3v3h-4v-3l-12-3-9-3h-87l-10-1-2-1-2-4-10-5-12-5v-1z" fill="#67656B"/>
<path transform="translate(649,335)" d="m0 0h58l3 2v11l-1 1-13 1h-43l-38-1-1-1v-11l2-1z" fill="#F3CFCE"/>
<path transform="translate(327,219)" d="m0 0 5 1v2l4 2 8 6 12 4 14 1h13l18-5 6-4 4-2 1-2v12l-2 5-7 6-11 4-5 1h-29l-10-2-13-5-6-4-3-5-1-5-1-3z" fill="#656369"/>
<path transform="translate(682,526)" d="m0 0h168l2 4-5 3-105 1h-57l-4-2-1-3z" fill="#E9EFFA"/>
<path transform="translate(642,471)" d="m0 0 6 1 1 2-21 7-6 3-9 6-15 15-7 10-1 3h-2l-2 4-12 17-13 16-7 7-3 2h-5l-4-7 2-5 15-14 11-14 9-10 9-11 8-7 10-9 8-6 16-8z" fill="#66646A"/>
<path transform="translate(119,679)" d="m0 0h7l9 4 5 2 14 2 5 5-2 1v2h-2v2h-2v2l-4 1h-22l-9-2h-2l-11-1-26-1v-2l-17-3 1-2 24-4 20-4z" fill="#03E6A3"/>
<path transform="translate(676,282)" d="m0 0h109l2 1-1 9-2 1h-108l-1-1v-9z" fill="#57F1C7"/>
<path transform="translate(510,395)" d="m0 0h88l1 1v10l-1 1-18 1h-70l-3-3-1-2v-7z" fill="#FFEFD5"/>
<path transform="translate(278,125)" d="m0 0h15l-5 10-7 6h-8l-2-1 1 11 2 7 4 1 9 1 21 12 15 5 9 2h22l4-1-2 4-2 2-14 1 4 5-1 9-2 5h-1v-14l-19-3-21-5v-2l-5-1-10-5v-2l-4-2-6-5-4-7-3-6v-19l5-6z" fill="#64626A"/>
<path transform="translate(300,351)" d="m0 0h2l2 12 5 26 9 27 7 16 10 19 8 16 9 19 4 8-2-22-3-20-5-13-19-38v-3l3 1 10 20 6 10 8 19 3 19 3 27v19h-2l-4-13-8-16-6-10-6-17v-2h-3l-1 8-3 11-3-12-4-27-9-27-6-19-5-25z" fill="#110D16"/>
<path transform="translate(321,245)" d="m0 0h2l-1 7-7 17-5 11-6 17-2 9h-2l-2 10-2 8-1 15-1 2-1 14v28l2 18 1 37-1 31-3 32-1 4-2 20-2 3v-26l3-31 1-18v-37l-2-16-2-17v-28l4-28 6-24 4-9 4-12h2l1-7 5-12 4-7z" fill="#69676F"/>
<path transform="translate(558,175)" d="m0 0h23l43 1 3 2v6l-1 2-3 1-33 1-56-1-4-2v-8l1-1z" fill="#E9EFFA"/>
<path transform="translate(597,509)" d="m0 0v3l1 5 11 10 7 6 1 3-3 3-16 1 1-2 13-3v-2l-4-2-13-11-4 2-12 16-4 5h-2l-1 5-14 15-5 5-15 11-4 13-6 10-1 3 24-4 28-5 21-4 9-2 2-3 1 2h10v2l-36 7-58 10-6-1-1-4 9-13 5-12 2-12 1-14 1-2h2l2 7 3 6h5l10-9 13-16 12-17 2-3h2l1-4 2-3z" fill="#100C14"/>
<path transform="translate(425,625)" d="m0 0h3l-2 4-5 5-1 7 3 5v3l-13 3-18 3-5-1-7-2 1-4 1-15 3-1 12-1 13-3z" fill="#59E6C0"/>
<path transform="translate(621,737)" d="m0 0h28l22 2 85 6 24 2 41 3v1h-16l-30-1 52 4 27 1 1-3 1 4h-31l-19-1-22-2-43-3-48-3-20-2-58-4-9-1v-1h11l29 2h9l-1-1-33-2z" fill="#73717D"/>
<path transform="translate(461,531)" d="m0 0h2l3 12 10 16 9 11 11 12 7 8 11 10 4 3 4 1v3l3 1-1 3 5 2 7 1 22 1 7 2-1 4-7 4-12 5-22 6h-5l3-2 5-1 2-5h2l-3-9-7-8-12-11-4-3v-2l-3-1-7-8-12-13-11-14-8-13-3-9v-5z" fill="#050307"/>
<path transform="translate(331,455)" d="m0 0h3l2 4 1 18 3 12 3 6 2 5v4l-6 4-11 6-10 6h-2l1-12 3-9 1-7 3-8 1-6h2v-7z" fill="#F6F5F7"/>
<path transform="translate(867,632)" d="m0 0h46l6 2 1 4-2 2-11 1h-55l-40-1-4-2v-2l5-2 19-1z" fill="#FFEFD5"/>
<path transform="translate(530,121)" d="m0 0 1 2-7 8-9 9-8 10h-2l-2 4-5 4-3 2-6 2-19 7-7 3-5 1h-17l-16-6-4 20-7 23-3-1 1-9 6-22v-13l-9-3-6-5-2-4v-14h3l2 15 4 4 16 4 9 3 8 3h16l19-7 10-2 10-6 7-7 7-8 11-12 4-4z" fill="#4E4B59"/>
<path transform="translate(639,220)" d="m0 0h59l1 1v10l-2 1h-58l-2-2v-8z" fill="#A291DC"/>
<path transform="translate(637,467)" d="m0 0h9l3 1v2h2v2l3 1-1 5-6 3-13 2-14 7-14 12-7 8-5 1 4-7 17-17 10-6 7-3 15-4 1-1-6-1-12 2-12 6-9 6-10 8-14 14-10 11v-3l2-3h2l1-4 3-2v-2l-2-2 4-2 7-8 8-7 12-9 9-5 10-4z" fill="#34314A"/>
<path transform="translate(384,543)" d="m0 0 6 3 17 11 10 7 3 5-1 8-5 4-10 4-18 4h-4v-14l24-5 1-4-5-5-14-11-4-3z" fill="#656369"/>
<path transform="translate(336,463)" d="m0 0 2 3 4 9 15 30 1 8h2v-5h1v67h-1l-1-5-2-1v-44l-5-10-5-7-6 2-19 11-5 2 2-5 11-6 9-5 4-3h2l-5-14-2-5-2-8z" fill="#17131F"/>
<path transform="translate(206,586)" d="m0 0 2 1 1 2-22 13-35 21-28 17-19 11-22 13-21 13-17 10v2l-6 1-1-3 9-6 9-5 13-8 16-10 15-9 11-6 13-8 5-2 3-3 9-5 15-9h3v-2l10-6 11-6 9-6 11-6z" fill="#24202D"/>
<path transform="translate(340,230)" d="m0 0 16 4 14 1h13l10-1 4 4-4 7-5 1h-9l-7-1-7 1-20-2-8-3-3-5 1-4z" fill="#57EFC5"/>
<path transform="translate(468,116)" d="m0 0h40v2l-35 2-26 5-17 3-7 4h-2l-2 6-1 1-2 13-4-1-1-3v-13l4-9 6-5 7-2z" fill="#110D17"/>
<path transform="translate(562,241)" d="m0 0h55l2 2v7l-3 2-53-1-4-3v-5z" fill="#E9EFFA"/>
<path transform="translate(689,447)" d="m0 0h29l5 1 1 3v8l-4 3h-29l-7-2-2-4v-6l2-2z" fill="#FEF9F1"/>
<path transform="translate(425,233)" d="m0 0h9l5 5 3 11v3l-8 4-4 1h-10l-4-7-2-7v-7l1-1z" fill="#0AE6A5"/>
<path transform="translate(607,116)" d="m0 0h110l2 4-7 1-20 1-81-1-4-1z" fill="#FEF9F1"/>
<path transform="translate(278,125)" d="m0 0h15l-5 10-7 6h-8l-2-1 1 11 2 7 4 2 5 6 13 9 13 5 6 2 1 2-16-2v-2l-5-1-10-5v-2l-4-2-6-5-4-7-3-6v-19l5-6z" fill="#17141D"/>
<path transform="translate(283,721)" d="m0 0 27 2 203 20 19 2 16 1 17 2 38 4 1-2-1 5-14-2-213-21-65-6-28-3z" fill="#0E0A11"/>
<path transform="translate(405,341)" d="m0 0h2l1 15-1 24-4 28-11 54-3 20-3 43h-1v-35l3-28 12-59 3-20z" fill="#0F0C15"/>
<path transform="translate(486,609)" d="m0 0 9 5 7 2v2l-11 4-20 4-13 1v-1l-13-1 1-5 17-3 16-4 6-2z" fill="#110D16"/>
<path transform="translate(336,570)" d="m0 0h8l12 3 3 4v11l-12 4h-9l-3-1 1-8 5-5 2-4-7 2-6 9h-2l1-6 4-6z" fill="#67656B"/>
<path transform="translate(122,675)" d="m0 0h12v2l-19 4-25 4-21 4-12 2-15 1-6 3-2 2-1-4 3-5 6 1 12-4 24-4h8v-2l12-1 14-1z" fill="#110D15"/>
<path transform="translate(593,519)" d="m0 0 4 2 11 9 4 3v2l-16 5-16 4h-5l2-5 8-10 7-9z" fill="#7556FB"/>
<path transform="translate(324,462)" d="m0 0h1l2 8v8h-2l-1 9-2 5-3 15-1 1-2 12 3 1-5 7-7 30-5 18-7 16-7 13v3l7 1v1h-9l-1-5 2-6 8-16 7-20 9-39 2-15 1-3h2l2-10 5-17z" fill="#1B1828"/>
<path transform="translate(597,509)" d="m0 0v3l1 5 11 10 7 6 1 3-3 3-16 1 1-2 13-3v-2l-4-2-13-11-4 2-12 16-4 5h-2l-1 5-14 15-5 5-5 4-2-1 4-4-3-1v-2l7-3 9-9 13-17 10-14 2-3h2l1-4 2-3z" fill="#1E1A29"/>
<path transform="translate(428,460)" d="m0 0h21l15 4 13 7 14 11 8 9 2 5-4-1-11-12-9-8-10-6-12-4-6-1h-19l-11 3-7 6-6 10-3 9-2 20-2-2v-18l5-14 6-8 8-7z" fill="#110D17"/>
<path transform="translate(344,644)" d="m0 0 5 1-3 4-1 5v8l5 5 4 1-2-5-1-7 6-7 7-1v3l-7 3v8l4 4 9-3 2-1 1 5-11 3h-17l-8-4-4-5v-7l4-5z" fill="#1B1721"/>
<path transform="translate(470,417)" d="m0 0 5 2 8 11 5 4v2l4 1 14 9-2 4-7-5h-3l12 17 7 12 6 10 7 15-1 3v-2h-3l-10-21-16-24-26-36z" fill="#1B1825"/>
<path transform="translate(336,209)" d="m0 0h3l-2 7v5l6 5 13 4 6 1h21l14-3 8-4 3-5 2-9 3-1v10l1 6-1-3h-2v2l-8 6-15 5-5 1h-13l-14-1-12-4-8-6-5-5h-3l1-5 6-4z" fill="#110F1A"/>
<path transform="translate(818,716)" d="m0 0 4 1 16 15 10 10 7 6 1 4-2 3h-27l-54-4 4-2 64 2 12 1v-2l-5-2-20-20-7-8z" fill="#312E43"/>
<path transform="translate(395,771)" d="m0 0 12 2 6 2 5 1 10 1 3 2h6l1 1 13 2 6 2 10 1 3 2 5 1 10 1 1 3 7 1v1h-10l-23-5-1-1-14-2-5-2-19-3-28-6v-3z" fill="#24202B"/>
<path transform="translate(717,743)" d="m0 0 26 1 37 3 41 3v1h-16l-30-1 52 4 27 1 1-3 1 4h-31l-19-1-22-2-18-1-4-2-12-1-29-2v-1h5v-2h-9z" fill="#676674"/>
<path transform="translate(774,389)" d="m0 0h24l4 4-1 7-6 2h-19l-4-2v-9z" fill="#F4D2CF"/>
<path transform="translate(57,690)" d="m0 0 11 1 9 2 2 1v2h29l8 1h3l1 1 9 2v2l-21-1-55-4-11-2 3-3z" fill="#5ADFBB"/>
<path transform="translate(505,447)" d="m0 0 7 4 11 8 5 4 3 1v2l4 2 13 9 13 10 8 7 8 6 7 5-2 4h-2l-1 4h-3l2-7-18-14-13-10-14-11-18-13-10-7z" fill="#1B1823"/>
<path transform="translate(329,640)" d="m0 0h5v2l-141 25h-6l3-3 18-3 19-4 86-14z" fill="#100C15"/>
<path transform="translate(330,609)" d="m0 0 4 1-9 3-71 19-6 1-11-1-10-4-3-4v-7h1l2 7 4 3 4 1h17l15-3 12-5 17-5h6l4-1 16-3z" fill="#7555FB"/>
<path transform="translate(325,227)" d="m0 0h1l2 10 5 4 12 5 6 2 7 1h29l14-4 5-1 1 6-21 3-10 1h-9l-16-2-15-5-8-4-5 1v-14z" fill="#191727"/>
<path transform="translate(327,398)" d="m0 0 3 1 10 20 6 10 8 19 3 19 3 27v19h-2l-1-6h2l-3-12-1-13-3-26-4-13-21-42z" fill="#130F1A"/>
<path transform="translate(706,576)" d="m0 0 10 1 5 5-2 6-3 2h-16l-5-2-3-5 2-5 1-1z" fill="#E9EFFA"/>
<path transform="translate(321,245)" d="m0 0h2l-1 7-7 17-5 11-6 17-2 9h-2l-2 10-6 28-2 2 1-19 6-24 4-9 4-12h2l1-7 5-12 4-7z" fill="#2D2A37"/>
<path transform="translate(379,596)" d="m0 0 5 1-2 2v31l7 1-4 2h-3v15l-2 4 7 1v3l2 1-2 6-12 4-3-1v-5l4-8 2-9z" fill="#030205"/>
<path transform="translate(461,531)" d="m0 0h2l3 12 10 16 9 11 11 12 7 8 11 10 7 4-5 4-8-8-4-3v-2l-3-1-7-8-12-13-11-14-8-13-3-9v-5z" fill="#100C15"/>
<path transform="translate(545,342)" d="m0 0h18l5 3v6l-2 3h-24l-2-1v-8z" fill="#A494DB"/>
<path transform="translate(387,93)" d="m0 0h18v1l-5 1v5l10 5 5 3h41l6 1v1l-25 2h-20l-10-1-2-1-2-4-10-5-12-5v-1z" fill="#14101C"/>
<path transform="translate(254,631)" d="m0 0h8l-2 2-11 4-3-1v2l-11 3-9 2-7 2-19 5-12 3-10 3h-6l1-2h3v-2l68-18z" fill="#14101B"/>
<path transform="translate(419,568)" d="m0 0h2v8l-2 3 8 1 1-3 6-3 11 9 15 9 22 13-1 2-17-9-21-13-5-1-13 4h-5l1-2 15-4v-1l-7 1-7 2-12 2-7 1 1-3 10-4 4-3z" fill="#14111C"/>
<path transform="translate(206,586)" d="m0 0 2 1 1 2-22 13-35 21-21 13h-2l1-5 11-6 15-9h3v-2l10-6 11-6 9-6 11-6z" fill="#2A2633"/>
<path transform="translate(431,327)" d="m0 0 3 2 3 10 4 9 9 23 4 10 8 17 3 5v3h2l4 8v2h-3l-13-24-11-25-11-29-3-8z" fill="#201D29"/>
<path transform="translate(454,105)" d="m0 0 3 1v2l5-1h36l15 3 13 5 3 3v3h-4v-3l-12-3-9-3-53-1v-1l5-1-2-1z" fill="#4F4D5D"/>
<path transform="translate(359,576)" d="m0 0 2 1v38l-2 14-4 10-7 6h-2l1-3h2v-3l-13 2 2-3 15-4 2-3 2-16-1-9-5 2h-5l2-2 11-3v-12l-4-1 4-2z" fill="#120E18"/>
<path transform="translate(300,351)" d="m0 0h2l2 12 5 26 9 27 6 14h-2l-1 5-2-4-10-28-7-27-2-12z" fill="#0F0B14"/>
<path transform="translate(384,552)" d="m0 0 5 2 12 9 3 3-1 3-9 2h-11v-13z" fill="#7555FC"/>
<path transform="translate(526,629)" d="m0 0 2 1-2 3-7 3-4 2-31 6-30 5-5 1-2-1v-2l32-6 27-6 18-5z" fill="#110D16"/>
<path transform="translate(283,540)" d="m0 0 2 1-2 1zm-3 2 5 1-1 3h-3l-27 16-24 14-13 8-6 4-4-1 3-3 10-6 14-8 7-5 8-4 11-7 12-7z" fill="#161320"/>
<path transform="translate(437,111)" d="m0 0h67l13 4v1l-13-1v1l-47 1 5-4-25-1z" fill="#68676C"/>
<path transform="translate(775,674)" d="m0 0 8 6 14 14 8 7 15 14v3l8 8h-3l-14-14-8-7-15-14-4-3v-2l-4-2-6-6z" fill="#3A384C"/>
<path transform="translate(616,536)" d="m0 0h1v17l-2 35 37-6 11-2h9l1 2-2 2h-8l-36 7h-5v-2h-8v-28z" fill="#5E5968"/>
<path transform="translate(278,159)" d="m0 0 9 1 21 12 15 5 9 2h22l4-1-2 4-1 1h-21l-17-4-17-7-18-10-4-2z" fill="#14101B"/>
<path transform="translate(268,139)" d="m0 0 3 1 1 11 2 7 4 2 5 6 13 9 13 5 6 2 1 2-16-2v-2l-5-1-10-5v-2l-4-2-6-5-4-7-3-6z" fill="#18141E"/>
<path transform="translate(355,94)" d="m0 0h11v1l-13 3-9 3-10 4-8 6-6 7-3 5-10 3h-12l1-3 17-1 2-4 4-6 7-6 4-1v-2l6-3 7-2 7-3z" fill="#1C1923"/>
<path transform="translate(484,615)" d="m0 0h9v3l-7 1v2l-12 2-17 2h-12l1-3 8-2z" fill="#5EC9AD"/>
<path transform="translate(630,479)" d="m0 0 11 2v1l-7 1-14 7-14 12-7 8-5 1 4-7 17-17 10-6z" fill="#3B3850"/>
<path transform="translate(336,463)" d="m0 0 2 3 4 9 15 30 2 11-5-5-6-12-5-12-2-6-2-4-2 3-1-3z" fill="#6A686F"/>
<path transform="translate(458,122)" d="m0 0h5l-3 2-20 4-12 6-6 9-4 10-2 3-3-4h3l1-13 4-7 9-5z" fill="#66646A"/>
<path transform="translate(468,116)" d="m0 0h40v2l-35 2-20 4h-5l4-6 3-1z" fill="#120E18"/>
<path transform="translate(530,121)" d="m0 0 1 2-7 8-9 9-8 10h-2l-2 4-5 4-3 2-8 1 3-3 9-6 15-16 7-8 6-6z" fill="#1F1C26"/>
<path transform="translate(292,455)" d="m0 0 2 1-2 33-2 30-2 9h-1v-26l4-39z" fill="#423F57"/>
<path transform="translate(539,550)" d="m0 0h2l2 7 4 7v2l4 1-6 7-4 3h-4v-11l1-14z" fill="#040205"/>
<path transform="translate(338,462)" d="m0 0 3 1 11 23 7 15v6h-2l-16-32-4-9z" fill="#100D16"/>
<path transform="translate(278,160)" d="m0 0 8 3 14 8 15 7v3l-9-1-12-5-13-10-3-3z" fill="#7F7F81"/>
<path transform="translate(418,166)" d="m0 0 5 2 1 1-1 9-4 16-5 16-3-1 1-9 6-22z" fill="#55535F"/>
<path transform="translate(413,278)" d="m0 0 2 2 2-2 9 28 5 15v6l-2-1-2-7h-2l-2-7v-5h-2l-5-17-3-9z" fill="#403D4E"/>
<path transform="translate(336,209)" d="m0 0h3l-2 7v5l6 5 13 4 7 2v3h-7l-12-4-8-6-5-5h-3l1-5 6-4z" fill="#17141F"/>
<path transform="translate(435,627)" d="m0 0h22v1l-14 1-6 5-5 12-2 1-5-5 1-5 4-6z" fill="#7D7C80"/>
<path transform="translate(639,222)" d="m0 0 8 1 8 2 5-1 3 2-1 5h-22l-2-1z" fill="#8E72F5"/>
<path transform="translate(255,597)" d="m0 0h9l-3 3-17 3-9 6-7 10 1 4 4 2 1 3-5-1-4-4v-7l6-9 9-7z" fill="#231F34"/>
<path transform="translate(818,716)" d="m0 0 4 1 16 15 10 10 7 6 1 4h-3v-2l-5-2-20-20-7-8z" fill="#29262F"/>
<path transform="translate(402,138)" d="m0 0 2 1 2 15 4 4 16 4 1 3h-2v4l-5-2-14-7-4-5-1-2v-14z" fill="#110E16"/>
<path transform="translate(360,648)" d="m0 0h4v3l-7 3v8l4 4 9-3 2-1 1 5-11 3h-8l-1-5-2-5 1-6 5-5z" fill="#130F19"/>
<path transform="translate(431,580)" d="m0 0h5v3l-42 11-13 2v-3l22-5 24-6z" fill="#927CE7"/>
<path transform="translate(577,536)" d="m0 0 1 3-3 4h-2l-1 5-14 15-5 5-5 4-2-1 4-4-3-1v-2l7-3 9-9 10-13z" fill="#110D17"/>
<path transform="translate(325,227)" d="m0 0h1l2 10 5 4 12 5 6 2 7 1-3 1v2l-8-1-13-5-6-3-5 1v-14z" fill="#161320"/>
<path transform="translate(395,771)" d="m0 0 12 2 6 2 5 1 10 1 4 4 3 2-9-1-33-7v-3z" fill="#2D2935"/>
<path transform="translate(523,500)" d="m0 0h2v2h2l9 27 3 13v5l-1-4h-3l-7-26-5-14z" fill="#171321"/>
<path transform="translate(330,609)" d="m0 0 4 1-9 3-37 10h-7l3-2 3-3 9-3h6l4-1 16-3z" fill="#896CF5"/>
<path transform="translate(379,596)" d="m0 0 5 1-2 2v31l7 1-4 2h-3v15l-3 1-2 4 1-9z" fill="#110D16"/>
<path transform="translate(388,551)" d="m0 0 5 2 14 11 1 5-2 2-8 2-16-1v-15l1-5h1l-1 19 17-2 3-1-2-4-12-9-3-3z" fill="#1E1B2D"/>
<path transform="translate(324,462)" d="m0 0h1l2 8v8h-2l-1 9-2 5-3 15-1 1-1 13-3-1-2 3 1-14 1-3h2l2-10 5-17z" fill="#3E3A4D"/>
<path transform="translate(252,606)" d="m0 0 7 1 1 3h-7l-7 5-2 5v5h17l-4 2-23 1-1-2 5-1 4-11 4-5z" fill="#110D17"/>
<path transform="translate(382,553)" d="m0 0 1 4-1 15h11v2l-11 1v14h8l-3 2-8 2v-23l2-16z" fill="#16121F"/>
<path transform="translate(420,563)" d="m0 0 3 2 4 2 6 6-1 3-4 2-1 2h-9l2-4 1-8h-2z" fill="#030205"/>
<path transform="translate(206,586)" d="m0 0 2 1 1 2-22 13-15 9-3-1 7-6 7-4 10-6z" fill="#282433"/>
<path transform="translate(536,570)" d="m0 0h1l1 6v3l-4 13-6 10-1 3 4 1-3 2-6-1-1-4 9-13 5-12z" fill="#120E18"/>
<path transform="translate(322,430)" d="m0 0h2l8 15-2 5-2 1-3-2v-2h-3l-1-6v-9z" fill="#07050A"/>
<path transform="translate(384,507)" d="m0 0h1l1 5h1v23l-1 4h-2v8l4 2v3l-7 2 1-13 1-10z" fill="#191625"/>
<path transform="translate(300,351)" d="m0 0h2l2 12 5 28-3 1-5-21-1-7z" fill="#0F0C15"/>
<path transform="translate(298,300)" d="m0 0 1 4v2l1 3-4 15-4 20-2 2 1-19 6-24z" fill="#423F58"/>
<path transform="translate(401,508)" d="m0 0h1l3 19 6 16 2 5-3 3-3-5-7-24-1-12z" fill="#13101B"/>
<path transform="translate(314,516)" d="m0 0h1v5l4-1-5 8-6 27-3 2 1-11 5-22z" fill="#171421"/>
<path transform="translate(358,525)" d="m0 0 3 3v47h-1l-1-5-2-1z" fill="#2C2944"/>
<path transform="translate(599,520)" d="m0 0 4 2 11 9 3 5-3 3-16 1 1-2 13-3v-2l-4-2-8-7z" fill="#16121E"/>
<path transform="translate(608,737)" d="m0 0h13l33 2 3 2-2 1-22-1-26-2z" fill="#2C2944"/>
<path transform="translate(426,230)" d="m0 0h10l4 4 4 8v3h-2l-1 4-3-11-1-3-3-1h-9l-9 1-1-3z" fill="#312E3B"/>
<path transform="translate(489,639)" d="m0 0 2 1-2 3-35 6-5 1-2-1v-2l32-6z" fill="#110D16"/>
<path transform="translate(496,582)" d="m0 0 7 6 8 7 4 1 11-2 2-1-2 4-5 7-4-1-14-12-7-7z" fill="#67656B"/>
<path transform="translate(388,539)" d="m0 0 4 1 2 2 11 1 1-3 4 9 3 6-5-1-19-13z" fill="#66646A"/>
<path transform="translate(268,139)" d="m0 0 3 1 1 11 2 7 4 2 5 6 2 1v3l-6-2-4-3-4-7-3-6z" fill="#1C1924"/>
<path transform="translate(278,129)" d="m0 0h5l2 5-1 2-4 2v2h-10l-2-1 2-4 3 1 1-4h2v-2z" fill="#020104"/>
<path transform="translate(672,582)" d="m0 0 4 2 9 7 5 5 7 8v2l-4-2-14-12-7-7z" fill="#2C2939"/>
<path transform="translate(562,489)" d="m0 0 8 6 14 10-2 4h-2l-1 4h-3l2-7-17-13z" fill="#181421"/>
<path transform="translate(644,469)" d="m0 0h3v2l5 2 1 5-6 3h-11l-5-1 1-2 15-4 1-1-4-2z" fill="#1C1823"/>
<path transform="translate(575,512)" d="m0 0 2 1-2 4-4 7-8 10h-3l-8 8v-3l7-7 8-10z" fill="#1E1A2C"/>
<path transform="translate(287,355)" d="m0 0 3 1 1 32 1 11h-2l-1-7v-9h-2z" fill="#44415A"/>
<path transform="translate(407,473)" d="m0 0 2 1-1 5-4 10-2 9-1 14-2-2v-18l5-14z" fill="#0D0A12"/>
<path transform="translate(405,341)" d="m0 0h2l1 15-1 24-3 4v-17z" fill="#0C0911"/>
<path transform="translate(343,504)" d="m0 0 4 2-4 3-21 12-5 2 2-5 11-6 9-5z" fill="#282537"/>
<path transform="translate(338,476)" d="m0 0 3 3 2 3 3 9 4 10-1 2-2-1-2-4-2 1-3-9-2-5z" fill="#312D45"/>
<path transform="translate(442,245)" d="m0 0h2l1 2v6l-5 4-10 3-1 1h-9l-1-3 9-1 12-5h2z" fill="#15131B"/>
<path transform="translate(637,467)" d="m0 0h9l3 1v2h2v2l3 1-1 4v-2l-2-1-4-3v-2h-3v2l-2 1h-15l1-3z" fill="#312D3A"/>
<path transform="translate(407,252)" d="m0 0 4 1 3 15 2 6v7l-3-3-5-18z" fill="#2C2837"/>
<path transform="translate(359,93)" d="m0 0h22l5 1-4 2 3 2h-10l-14-1z" fill="#65636C"/>
<path transform="translate(356,631)" d="m0 0 1 4-3 5-6 5h-2l1-3h2v-3l-13 2 2-3 15-4 3-1z" fill="#0D0A11"/>
<path transform="translate(419,568)" d="m0 0h2v8l-2 3 7 1v2h-4v2l-12 2-7 1 1-3 10-4 4-3z" fill="#120E18"/>
<path transform="translate(322,447)" d="m0 0h1l1 9v23l-6 21-2 6h-1l1-9 6-22z" fill="#66646A"/>
<path transform="translate(427,164)" d="m0 0 8 1 8 3 14 1-3 2-14-1 1 2-6-1-10-4v-2z" fill="#5A5764"/>
<path transform="translate(491,618)" d="m0 0 2 1v2l-16 4-14 2h-5l-1-3 25-3h4v-2z" fill="#1B1824"/>
<path transform="translate(33,690)" d="m0 0 2 1-1 4 8-4h9v1l-7 2 5 1v1h-6v2l2 2-5-1-9-2-1-5z" fill="#2F2C35"/>
<path transform="translate(574,597)" d="m0 0m-7 1h7v2l-41 7-4-1 16-4z" fill="#110D16"/>
<path transform="translate(480,475)" d="m0 0 5 2 10 9 6 9-3 1-12-13-6-6z" fill="#0D0B13"/>
<path transform="translate(321,245)" d="m0 0h2l-1 7-7 17-3 7-2-2 1-6 6-12z" fill="#302C3C"/>
<path transform="translate(387,93)" d="m0 0h11l-1 7-4 1-12-5v-1z" fill="#130F19"/>
<path transform="translate(280,575)" d="m0 0 1 4-9 17-3 3h-13v-1l8-1 6-4 7-15h2z" fill="#181523"/>
<path transform="translate(170,668)" d="m0 0h5v2l-8 2-22 4h-9l1-2 8-2 17-2z" fill="#1E1B26"/>
<path transform="translate(423,300)" d="m0 0 2 4 6 17v6l-2-1-2-7h-2l-2-7v-5h-2v-3h2z" fill="#524F64"/>
<path transform="translate(454,105)" d="m0 0 3 1v2h32l-2 3h-36v-1l5-1-2-1z" fill="#2B2843"/>
<path transform="translate(710,747)" d="m0 0h23l20 1 12 2v1h-13l-42-3z" fill="#807B8F"/>
<path transform="translate(386,537)" d="m0 0 7 6 7 5v3l-2 1-13-8-2-2 1-3h2z" fill="#0C0910"/>
<path transform="translate(405,382)" d="m0 0h1l-1 14-3 17-3-2 4-28z" fill="#15111E"/>
<path transform="translate(431,327)" d="m0 0 3 2 3 10 4 9 2 7-4-1-9-24z" fill="#3A374C"/>
<path transform="translate(530,121)" d="m0 0 1 2-7 8-8 8-4-1 11-12 4-4z" fill="#19161E"/>
<path transform="translate(329,640)" d="m0 0h5v2l-39 7h-2l1-3 31-5z" fill="#110D17"/>
<path transform="translate(130,632)" d="m0 0m-1 1m-2 1h2v3l-21 12-1-2 5-5 12-7z" fill="#1E1B27"/>
<path transform="translate(721,626)" d="m0 0 4 1 14 13v3l-4-1-12-11z" fill="#2A2735"/>
<path transform="translate(336,209)" d="m0 0h3l-2 7v5l1 2-2 2-5-5h-3l1-5 6-4z" fill="#1C1825"/>
<path transform="translate(693,221)" d="m0 0h6v10h-8v-2h-2l2-4z" fill="#9076F1"/>
<path transform="translate(351,125)" d="m0 0h20l-1 4h-15l-4-2z" fill="#0B080E"/>
<path transform="translate(514,477)" d="m0 0 2 1 10 21-1 3v-2h-3l-8-17z" fill="#1C1829"/>
<path transform="translate(325,227)" d="m0 0h1l2 10 5 6-3 1-5-1-2 1v-14z" fill="#272531"/>
<path transform="translate(395,771)" d="m0 0 12 2 5 1-1 4-9-1-9-2v-3z" fill="#28252E"/>
<path transform="translate(431,580)" d="m0 0h5v3l-19 5h-9l3-2 18-5z" fill="#8B73EA"/>
<path transform="translate(383,552)" d="m0 0h1l-1 19 17-2 3-1-2-5 4 2 1 3v3l-8 2-16-1v-15z" fill="#2B2843"/>
<path transform="translate(457,462)" d="m0 0 11 4 12 7 1 2-2 2-10-7-14-5z" fill="#130F1A"/>
<path transform="translate(363,232)" d="m0 0h24v2l-11 2-13-1z" fill="#08060C"/>
<path transform="translate(356,178)" d="m0 0h2l-2 4-1 1h-21l2-1v-2l18-1z" fill="#14111E"/>
<path transform="translate(424,461)" d="m0 0 3 1-2 3-7 3-6 5-2 3h-2l1-5 9-8z" fill="#110D16"/>
<path transform="translate(337,574)" d="m0 0h6l-1 4-5 5-2 4-1-3-3-2 4-6z" fill="#130F1A"/>
<path transform="translate(596,537)" d="m0 0 4 1-8 3-12 3h-5l2-5 3-1v2z" fill="#8C71F2"/>
<path transform="translate(358,483)" d="m0 0h1l1 11v19h-2l-1-6h2l-3-12v-9z" fill="#14111C"/>
<path transform="translate(411,209)" d="m0 0h2v10l1 6-1-3h-2v2l-5 4h-2l2-4 2-5 2-9z" fill="#0D0A12"/>
<path transform="translate(523,500)" d="m0 0h2v2h2l5 14v3l-3 1-6-17z" fill="#171422"/>
<path transform="translate(315,182)" d="m0 0 10 2 11 2v2h-10l-18-4v-1h7z" fill="#504C65"/>
<path transform="translate(445,108)" d="m0 0h11l6 1v1l-11 1h-29v-1z" fill="#0B080F"/>
<path transform="translate(505,593)" d="m0 0 6 4 7 6 3 2-3 1-2 2-10-10z" fill="#110E18"/>
<path transform="translate(485,160)" d="m0 0 4 2-16 6h-4v-2h2v-2l7-3z" fill="#4B485A"/>
<path transform="translate(462,113)" d="m0 0h21l-1 3-14 1h-11z" fill="#66646A"/>
<path transform="translate(324,462)" d="m0 0h1l2 8v8h-2l-1 9-3 8h-1l1-8 2-8z" fill="#2F2B3E"/>
<path transform="translate(440,352)" d="m0 0 4 4 6 15-1 2-2 1-7-18z" fill="#2E2B39"/>
<path transform="translate(413,584)" d="m0 0h6v1l-16 4h-17l4-2 10-2 7 1z" fill="#221F33"/>
<path transform="translate(587,522)" d="m0 0v3l-2 5-6 8h-3v-3l7-10z" fill="#1A1625"/>
<path transform="translate(514,112)" d="m0 0 8 1 4 2 3 3v3h-4v-3l-12-3-2-2z" fill="#2D2A3E"/>
<path transform="translate(629,586)" d="m0 0h10v2l-12 3h-5l1-4z" fill="#2A272F"/>
<path transform="translate(489,639)" d="m0 0 2 1-2 3-19 3v-2l-2-1z" fill="#15111D"/>
<path transform="translate(455,112)" d="m0 0h31v1l-24 1 4 2-13 1 3-3z" fill="#858686"/>
<path transform="translate(283,540)" d="m0 0 2 1-2 1zm-3 2 5 1-1 3h-3l-10 6-2-1 1-3z" fill="#292635"/>
<path transform="translate(289,502)" d="m0 0h1v17l-2 9h-1v-15l1-10z" fill="#120F19"/>
<path transform="translate(324,455)" d="m0 0 4 4 2-1-1 9-2 7-3-12z" fill="#0A080E"/>
<path transform="translate(435,231)" d="m0 0 4 1 5 10v3h-2l-1 4-3-11-1-3-3-1z" fill="#2A2831"/>
<path transform="translate(418,188)" d="m0 0h1v6l-5 16-3-1 3-11z" fill="#363343"/>
<path transform="translate(359,576)" d="m0 0 2 1v17l-1 9h-1v-12l-4-1 4-2z" fill="#130F1A"/>
<path transform="translate(278,160)" d="m0 0 8 3 6 4-1 2v2l-5-2-8-7z" fill="#868198"/>
<path transform="translate(461,531)" d="m0 0h2l3 12 1 6h-2l-4-8-1-9z" fill="#0B090F"/>
<path transform="translate(380,577)" d="m0 0h1l1 12h8l-3 2-8 2v-14z" fill="#0C080E"/>
<path transform="translate(287,533)" d="m0 0h1l-1 24-2-2v-12l-2-1 2-3z" fill="#120E18"/>
<path transform="translate(307,122)" d="m0 0h6l1 2-7 2h-12l1-3z" fill="#322E3C"/>
<path transform="translate(50,680)" d="m0 0h2v3l-7 4v2l-6 1-1-3 9-6z" fill="#1E1A25"/>
<path transform="translate(597,809)" d="m0 0h1v8l-12-1-9-3 1-2 9 2h9z" fill="#18141E"/>
<path transform="translate(221,577)" d="m0 0 2 1 1 2-13 8-4-1 3-3 10-6z" fill="#1F1B28"/>
<path transform="translate(290,490)" d="m0 0h1v15l-2-2-1 10h-1v-11l1-11z" fill="#413E51"/>
<path transform="translate(337,188)" d="m0 0h5l2 2-1 9-2 5h-1v-14l-3-1z" fill="#272430"/>
<path transform="translate(141,625)" d="m0 0 2 1-1 3-11 7h-2l1-5z" fill="#282431"/>
<path transform="translate(183,600)" d="m0 0 2 1-1 3-12 7-3-1 7-6z" fill="#221E2B"/>
<path transform="translate(331,511)" d="m0 0h2l-1 3h-3l-1 4-9 5-2-1 2-4 11-6z" fill="#363346"/>
<path transform="translate(415,246)" d="m0 0 5 10 8 1v1l-8 1-2 1-6-11 1-2 2 1z" fill="#312E3C"/>
<path transform="translate(184,650)" d="m0 0 4 1-2 3-8 2h-6l1-2h3v-2z" fill="#130F1A"/>
<path transform="translate(337,571)" d="m0 0 7 1v1l-7 2-4 5-3 5h-2l1-6 5-5z" fill="#83818A"/>
<path transform="translate(402,138)" d="m0 0 2 1 1 14-3 2-1-2v-14z" fill="#120F19"/>
<path transform="translate(289,596)" d="m0 0h3l-2 6-2 3v3l7 1v1h-9l-1-5 2-6z" fill="#211E31"/>
<path transform="translate(401,508)" d="m0 0h1l2 18h-3l-2-10v-6z" fill="#171321"/>
<path transform="translate(403,244)" d="m0 0h3l1 6-10 1v-4z" fill="#060409"/>
<path transform="translate(416,109)" d="m0 0h21v3h-20z" fill="#1A1726"/>
<path transform="translate(355,94)" d="m0 0h11v1l-13 3-4 2-3-1-2-2z" fill="#3E3B49"/>
<path transform="translate(165,655)" d="m0 0h5l-1 2h-3v2l-4 1h-10l1-2z" fill="#16121E"/>
<path transform="translate(283,619)" d="m0 0 4 1-4 4-3 1h-8v-2z" fill="#7C5FF6"/>
<path transform="translate(465,616)" d="m0 0h6l-1 2-22 4-3 1 1-3 17-3z" fill="#120E18"/>
<path transform="translate(183,707)" d="m0 0h24v1l-13 1-1 1h-10z" fill="#09070D"/>
<path transform="translate(496,584)" d="m0 0 7 6 2 2 2 6-3-1v-2l-3-1-6-7z" fill="#0B0910"/>
<path transform="translate(470,417)" d="m0 0 5 2 6 9-3 2-8-11z" fill="#25222E"/>
<path transform="translate(300,177)" d="m0 0 14 4 2 3-16-2v-3z" fill="#262232"/>
<path transform="translate(318,177)" d="m0 0 9 1 9 2v2h-7l-11-3z" fill="#110E18"/>
<path transform="translate(343,98)" d="m0 0 4 1-8 4-9 4v-4l6-3z" fill="#272331"/>
<path transform="translate(441,629)" d="m0 0h2l-1 5-4 6-4-1 3-6z" fill="#1B1727"/>
<path transform="translate(527,593)" d="m0 0v3l-6 8-3-1h2v-4l-3-1 5-3z" fill="#585661"/>
<path transform="translate(254,631)" d="m0 0h8l-2 2-11 4-3-2 1-2z" fill="#15111D"/>
<path transform="translate(206,586)" d="m0 0 2 1 1 2-10 6h-3v-3z" fill="#272431"/>
<path transform="translate(536,543)" d="m0 0h2v4h2v2l3 1-2 1-2-1-1 16h-1z" fill="#14101B"/>
<path transform="translate(321,245)" d="m0 0h2l-1 7-4 9h-2l1-5z" fill="#262330"/>
<path transform="translate(414,231)" d="m0 0 2 4-1 1v12l-3-1-1-7z" fill="#0C0A11"/>
<path transform="translate(420,184)" d="m0 0 1 3-2 4-1-2-6 18-1-4 5-16 4-1z" fill="#64626D"/>
<path transform="translate(389,93)" d="m0 0h9l-1 7-4-1v-2l-3-1z" fill="#040205"/>
<path transform="translate(440,169)" d="m0 0 14 1h3v2l-4 1h-12v-2l-3-1z" fill="#39364C"/>
<path transform="translate(486,575)" d="m0 0 4 1 6 6-1 4-9-9z" fill="#13101B"/>
<path transform="translate(467,547)" d="m0 0 4 4 3 5-1 4-4-4-3-5z" fill="#120E19"/>
<path transform="translate(491,618)" d="m0 0 2 1v2l-12 3-7-1v-1l12-1v-2z" fill="#191721"/>
<path transform="translate(299,617)" d="m0 0 3 1-7 3-7 2h-7l3-2z" fill="#9A87E1"/>
<path transform="translate(255,597)" d="m0 0h9l-3 3-15 2 2-4z" fill="#232035"/>
<path transform="translate(687,596)" d="m0 0 4 1 6 7v2l-4-2-6-5z" fill="#1E1A29"/>
<path transform="translate(319,420)" d="m0 0 2 3 3 7h-2l-1 5-2-4-2-7h2z" fill="#120E19"/>
<path transform="translate(448,372)" d="m0 0 4 4 3 7v4l-3-1-4-10z" fill="#201D28"/>
<path transform="translate(663,580)" d="m0 0h9l1 2-2 2h-10l-4-3z" fill="#413E4E"/>
<path transform="translate(390,230)" d="m0 0 3 1 1 2-11 3h-7l4-2h7v-2l-4-1z" fill="#2C2A38"/>
<path transform="translate(384,769)" d="m0 0 7 1 2 4-10-1-4-2z" fill="#36323F"/>
<path transform="translate(55,680)" d="m0 0 2 3-3 3-6 2-4-1z" fill="#968ABF"/>
<path transform="translate(544,602)" d="m0 0h6v2l-17 3-4-1z" fill="#0C0910"/>
<path transform="translate(590,594)" d="m0 0m-8 1h8v2l-10 2h-6l1-2z" fill="#0F0B13"/>
<path transform="translate(610,587)" d="m0 0 2 2h10v2l-15 3 2-4z" fill="#110D16"/>
<path transform="translate(386,537)" d="m0 0 6 5v2h-2l-1 2-6-3 1-4h2z" fill="#110D17"/>
<path transform="translate(286,516)" d="m0 0h1l1 9h1v6l-2 3-1 5h-1z" fill="#5C576D"/>
<path transform="translate(752,748)" d="m0 0 13 2v1h-13l-11-1v-1z" fill="#868199"/>
<path transform="translate(394,433)" d="m0 0h3l-1 9-1 5-3-2z" fill="#171423"/>
<path transform="translate(405,341)" d="m0 0h2l1 15h-3z" fill="#0F0C15"/>
<path transform="translate(426,313)" d="m0 0 3 2 2 6v6l-2-1-3-7z" fill="#322F41"/>
<path transform="translate(296,584)" d="m0 0 1 4-4 8-3 1 1-5z" fill="#15121F"/>
<path transform="translate(300,573)" d="m0 0h1l-1 8-2 5-3-1 3-10z" fill="#191524"/>
<path transform="translate(642,471)" d="m0 0 6 1 1 2-9 3h-5l3-2 3-1-1-2z" fill="#7A7A7C"/>
<path transform="translate(327,398)" d="m0 0 3 1 4 9-3 2-4-9z" fill="#14111C"/>
<path transform="translate(412,222)" d="m0 0h3v9l-3 7-1-4z" fill="#2D2A42"/>
<path transform="translate(296,615)" d="m0 0 5 1-2 2-8 2h-4v-2z" fill="#8669F7"/>
<path transform="translate(432,583)" d="m0 0h6l-3 2-10 3h-5l1-2z" fill="#1A1724"/>
<path transform="translate(234,570)" d="m0 0m-2 1h2v3l-8 5-4-1z" fill="#16121F"/>
<path transform="translate(399,559)" d="m0 0 4 2 5 5-1 4-3-1 1-2-2-3-4-2z" fill="#171320"/>
<path transform="translate(269,549)" d="m0 0 1 2-4 4-5 3-2-1 2-4z" fill="#1D1A28"/>
<path transform="translate(601,485)" d="m0 0 2 1-8 8v2h-2l-1 2-4-1z" fill="#645F76"/>
<path transform="translate(305,380)" d="m0 0h2l2 11-3 1-2-10z" fill="#13101A"/>
<path transform="translate(365,765)" d="m0 0 7 2 1 3-13-2 4-2z" fill="#35323D"/>
<path transform="translate(814,714)" d="m0 0h5l1 4 8 8h-3l-11-11z" fill="#3D3A4E"/>
<path transform="translate(414,466)" d="m0 0 3 2-7 8h-2l1-5z" fill="#0B080E"/>
<path transform="translate(395,247)" d="m0 0h2l1 3-4 2h-6l-1-3z" fill="#14111D"/>
<path transform="translate(327,758)" d="m0 0 15 3v1h-11l-4-1z" fill="#2C2835"/>
<path transform="translate(36,688)" d="m0 0 4 1-1 4-5 4-1-4z" fill="#0C0A10"/>
<path transform="translate(169,608)" d="m0 0 2 1-2 4-5 3h-2l-1-3z" fill="#302D3B"/>
<path transform="translate(243,599)" d="m0 0 4 1-3 3-8 2 1-3z" fill="#191624"/>
<path transform="translate(442,245)" d="m0 0h2l1 2v6l-2 2h-3v-3h2z" fill="#0D0B13"/>
<path transform="translate(335,216)" d="m0 0h1l2 7-2 2-5-5h-3v-2h6z" fill="#29263F"/>
<path transform="translate(354,589)" d="m0 0 5 2-1 2-12 1 1-3z" fill="#221E33"/>
<path transform="translate(355,495)" d="m0 0 3 4 1 6v2h-2l-3-7z" fill="#07050A"/>
<path transform="translate(403,485)" d="m0 0 1 4-2 9-3-3 1-7z" fill="#1A1625"/>
<path transform="translate(455,385)" d="m0 0 3 4 2 6-3 1-4-9h2z" fill="#2F2C37"/>
<path transform="translate(322,185)" d="m0 0h9l5 1v2h-10z" fill="#262231"/>
<path transform="translate(59,674)" d="m0 0 2 1-4 5-5 2-1-3z" fill="#24212D"/>
<path transform="translate(226,618)" d="m0 0 2 4 5 3 1 3-5-1-4-4z" fill="#1C1829"/>
<path transform="translate(494,616)" d="m0 0h8v2l-5 2h-5z" fill="#0A070E"/>
<path transform="translate(386,478)" d="m0 0h1l1 7v8l-3 2z" fill="#1A1626"/>
<path transform="translate(439,253)" d="m0 0 2 3-8 3h-2l-1-3z" fill="#201D28"/>
<path transform="translate(293,175)" d="m0 0 5 1 4 4-2 1-9-4z" fill="#110D15"/>
<path transform="translate(90,655)" d="m0 0 2 1-5 6-5 1 1-4z" fill="#2B2833"/>
<path transform="translate(521,604)" d="m0 0 1 3 3 1-5 3-3-3 1-3z" fill="#030205"/>
<path transform="translate(337,592)" d="m0 0h10l-1 3h-9z" fill="#171321"/>
<path transform="translate(474,558)" d="m0 0 5 5 2 4-6-3-2-2z" fill="#09070D"/>
<path transform="translate(498,443)" d="m0 0 5 1 3 3-2 3-7-5z" fill="#282533"/>
<path transform="translate(309,274)" d="m0 0h2v5l-3 5h-2l2-9z" fill="#1F1C27"/>
<path transform="translate(347,636)" d="m0 0m-6 1h6v2l-8 2-3-1z" fill="#120E18"/>
<path transform="translate(241,565)" d="m0 0 2 1 1 2-10 5 1-4z" fill="#211E2D"/>
<path transform="translate(536,533)" d="m0 0h1l2 9v5l-1-4h-3l-1-6z" fill="#242036"/>
<path transform="translate(334,454)" d="m0 0 3 1 3 7-4 1z" fill="#14101C"/>
<path transform="translate(300,351)" d="m0 0h2l1 9-3 4z" fill="#191523"/>
<path transform="translate(332,241)" d="m0 0 8 4v3l-6-2-2-2z" fill="#14101C"/>
<path transform="translate(667,225)" d="m0 0 4 1 1 5h-5l-1-5z" fill="#8E72F5"/>
<path transform="translate(42,691)" d="m0 0h9v1l-7 2-6 1-1-2z" fill="#706F73"/>
<path transform="translate(456,645)" d="m0 0 3 1-8 4-4-1v-2z" fill="#16121F"/>
<path transform="translate(623,587)" d="m0 0h7l-1 3-7 1z" fill="#2C2936"/>
<path transform="translate(403,588)" d="m0 0h11l-4 2-10 2z" fill="#A291DC"/>
<path transform="translate(309,173)" d="m0 0 10 3-2 3-8-3z" fill="#161320"/>
<path transform="translate(300,169)" d="m0 0 5 1 4 3v2l-9-3z" fill="#0C0A11"/>
<path transform="translate(278,159)" d="m0 0 9 1 2 1-1 2-2 1-8-4z" fill="#100D17"/>
</svg>
