<svg width="133" height="29" viewBox="0 0 133 29" fill="none" xmlns="http://www.w3.org/2000/svg">
<g clip-path="url(#clip0)">
<path d="M89.1099 9.86417C90.7685 5.57236 92.3699 4.26846 95.7908 4.52542C97.2545 4.63585 98.5848 5.08393 99.5804 6.25191C100.542 7.38167 100.741 8.78538 100.972 10.2443C101.192 9.98097 101.18 9.70702 101.245 9.46493C101.58 8.24598 102.006 7.0695 102.893 6.13299C104.249 4.70168 105.988 4.398 107.846 4.54878C109.581 4.69106 111.051 5.34513 111.976 6.92297C112.741 8.22899 112.966 9.67305 112.972 11.1511C112.991 15.1838 112.972 19.2165 112.987 23.2493C112.989 23.6379 112.904 23.7632 112.495 23.7547C111.032 23.7292 109.566 23.7292 108.102 23.7547C107.702 23.7611 107.575 23.6719 107.577 23.2429C107.596 19.8473 107.592 16.4495 107.583 13.0538C107.581 12.6142 107.547 12.1683 107.469 11.7372C107.164 10.0553 105.715 9.13365 103.842 9.40972C102.038 9.67517 101.05 10.7794 101.04 12.6058C101.019 16.1437 101.012 19.6795 101.019 23.2174C101.019 23.6167 100.942 23.7632 100.506 23.7547C99.0423 23.725 97.5765 23.7271 96.1128 23.7547C95.7124 23.7632 95.6235 23.6549 95.6256 23.262C95.6383 19.7602 95.6256 16.2584 95.6214 12.7565C95.6214 12.2384 95.5303 11.7329 95.3905 11.2403C95.0833 10.153 94.1534 9.49042 92.8253 9.38424C90.5185 9.19948 89.1184 10.5246 89.1099 12.9285C89.0993 16.3433 89.0972 19.7559 89.1184 23.1707C89.1205 23.623 89.0336 23.7802 88.5507 23.7568C87.6356 23.7122 86.7163 23.7462 85.7991 23.742C85.6466 23.742 85.4623 23.7844 85.3797 23.6018C85.2907 23.4064 85.4157 23.2726 85.547 23.1431C85.7885 22.9095 86.0236 22.6695 86.2566 22.4296C87.142 21.5207 87.1569 20.2592 86.2736 19.3482C85.511 18.5604 84.7336 17.7895 83.952 17.0229C83.7613 16.836 83.6851 16.6449 83.6872 16.3752C83.6957 12.748 83.6999 9.12303 83.6851 5.49591C83.683 5.10941 83.8079 5.03084 84.1638 5.03508C85.6275 5.0542 87.0933 5.06057 88.557 5.03296C88.987 5.02447 89.129 5.12428 89.1184 5.5766C89.093 7.00792 89.1099 8.43498 89.1099 9.86417Z" fill="black"/>
<path d="M38.535 11.2934C37.9525 8.87677 36.6837 6.91243 34.4341 5.71472C32.8348 4.86315 31.1169 4.45329 29.2296 4.49152C28.431 4.46816 27.5752 4.57434 26.7279 4.74847C23.8556 5.33671 21.6654 6.82112 20.4961 9.59667C19.295 12.4487 19.2103 15.3495 20.1741 18.2886C21.0617 21.0005 22.8494 22.7779 25.5587 23.6677C27.7701 24.394 29.9816 24.4046 32.2226 23.8631C35.3831 23.1007 37.3996 21.1109 38.3571 18.0465C39.0476 15.8252 39.0773 13.5466 38.535 11.2934ZM32.4429 17.8596C31.405 19.1508 29.9879 19.446 28.4437 19.2315C26.9186 19.0212 25.8764 18.1484 25.3596 16.681C24.8575 15.2582 24.7982 13.8248 25.2325 12.368C25.7917 10.4886 27.1834 9.41829 29.1237 9.41404C31.2356 9.40767 32.695 10.4419 33.2585 12.3467C33.4491 12.9944 33.536 13.6591 33.4936 14.2113C33.5211 15.6235 33.2669 16.8361 32.4429 17.8596Z" fill="black"/>
<path d="M53.2441 9.56471C53.3924 9.15273 53.5343 8.74075 53.6889 8.33089C54.7014 5.6509 56.4278 4.45955 59.2917 4.45106C61.4057 4.44469 63.1236 5.17733 64.1594 7.11831C64.6466 8.03146 64.8542 9.04018 64.9368 10.0701C65.0787 11.8879 64.9919 13.7121 65.0025 15.532C65.0173 18.0613 64.9982 20.5926 65.0152 23.1218C65.0173 23.5104 64.9347 23.6315 64.5258 23.6251C63.0431 23.5975 61.5603 23.5996 60.0775 23.6251C59.7005 23.6315 59.6179 23.5274 59.62 23.16C59.6348 19.8154 59.6285 16.4728 59.6285 13.1281C59.6285 12.7204 59.5946 12.319 59.5395 11.9134C59.2641 9.85352 57.883 9.20794 56.1376 9.32899C54.2312 9.46065 53.1445 10.703 53.1445 12.6163C53.1424 16.0842 53.134 19.552 53.1551 23.0199C53.1573 23.5083 53.0323 23.6633 52.5366 23.6527C51.0729 23.623 49.6071 23.6336 48.1413 23.6485C47.8278 23.6527 47.7197 23.5848 47.7197 23.2429C47.7303 17.2989 47.7303 11.3528 47.7197 5.40881C47.7197 5.02231 47.8638 4.93312 48.2175 4.93737C49.7003 4.95223 51.1831 4.95436 52.6658 4.93737C53.045 4.93312 53.1509 5.0754 53.1488 5.43641C53.134 6.81464 53.1424 8.19286 53.1424 9.57108C53.1784 9.56683 53.2102 9.56683 53.2441 9.56471Z" fill="black"/>
<path d="M68.1036 14.2239C68.1036 12.6333 68.0909 11.2721 68.112 9.91082C68.1163 9.56892 68.0337 9.44787 67.682 9.47548C67.2605 9.50733 66.8347 9.46486 66.4132 9.48822C66.0934 9.50521 65.9536 9.44787 65.962 9.07199C65.9896 7.85304 65.9853 6.63197 65.9642 5.41089C65.9578 5.08173 66.0425 4.9798 66.373 5.00316C66.8114 5.03289 67.2563 4.98192 67.6948 5.02015C68.0803 5.05413 68.1142 4.87787 68.1099 4.56357C68.0951 3.28941 68.1163 2.01737 68.0951 0.743202C68.0909 0.420414 68.165 0.326975 68.4976 0.331222C70.0142 0.350335 71.533 0.352458 73.0497 0.331222C73.4055 0.326975 73.4903 0.433156 73.486 0.77718C73.467 2.01524 73.4945 3.25331 73.4691 4.49137C73.4606 4.87999 73.5496 5.00528 73.9605 4.99679C75.2823 4.96918 76.6062 5.00316 77.9301 4.97555C78.3114 4.96706 78.3919 5.08386 78.3855 5.44487C78.3622 6.64683 78.3643 7.85092 78.3834 9.05288C78.3898 9.38629 78.3177 9.50096 77.9576 9.49459C76.5998 9.47123 75.2399 9.48397 73.8821 9.4861C73.683 9.4861 73.467 9.41177 73.4712 9.77491C73.4924 12.2319 73.4691 14.6911 73.5136 17.1481C73.5347 18.3288 74.1766 18.8958 75.3649 18.9319C75.7526 18.9447 76.1402 18.9277 76.5215 18.8448C76.6846 18.8109 76.8413 18.8087 76.9451 18.9723C77.0616 19.157 76.9642 19.2908 76.8498 19.4416C76.0131 20.5374 76.0851 21.5716 77.0553 22.5654C77.265 22.7799 77.481 22.988 77.6907 23.2025C77.9513 23.4679 77.9004 23.7206 77.5594 23.7971C75.4518 24.2685 73.3229 24.5191 71.2831 23.5932C69.3385 22.7119 68.434 21.047 68.2095 18.9786C68.0294 17.3201 68.1248 15.6552 68.1036 14.2239Z" fill="black"/>
<path d="M40.1556 5.05414C41.9052 5.7252 43.6507 5.75069 45.4046 5.02441C45.5316 5.12847 45.4766 5.27925 45.4766 5.40666C45.4787 11.3294 45.4766 17.25 45.485 23.1728C45.485 23.4934 45.4406 23.6315 45.0678 23.6272C43.5511 23.6039 42.0344 23.6102 40.5178 23.623C40.2382 23.6251 40.1238 23.5784 40.1238 23.2577C40.1344 17.2479 40.1323 11.236 40.1323 5.22616C40.1323 5.17094 40.145 5.11998 40.1556 5.05414Z" fill="black"/>
<path d="M85.6953 20.9049C85.7186 21.1852 85.6106 21.4082 85.4094 21.6099C84.382 22.6292 83.3653 23.6613 82.3358 24.6807C81.9016 25.1096 81.3614 25.1224 80.9229 24.6934C79.8892 23.6804 78.864 22.6569 77.8557 21.6163C77.4066 21.1533 77.413 20.6203 77.8684 20.151C78.8661 19.1253 79.8786 18.1145 80.8975 17.1121C81.3508 16.6662 81.9015 16.6725 82.3527 17.1164C83.3822 18.1336 84.399 19.1656 85.4263 20.1871C85.6297 20.391 85.7165 20.6224 85.6953 20.9049Z" fill="#8E7EF2"/>
<path d="M42.6931 4.10916C42.2546 4.09217 41.778 4.08792 41.3184 3.95201C40.4753 3.70355 40.0919 3.13654 40.0665 2.10235C40.0432 1.21043 40.4499 0.511763 41.204 0.263301C42.2313 -0.0764765 43.282 -0.0870946 44.3157 0.239941C45.1609 0.507516 45.5612 1.15097 45.5464 2.11084C45.5316 3.06859 45.0973 3.68231 44.2437 3.93927C43.7501 4.08792 43.2396 4.10491 42.6931 4.10916Z" fill="black"/>
<path d="M17.7445 8.94679C16.8167 6.06293 14.8213 4.61038 11.9257 4.45536C9.23976 4.31095 7.21472 5.56176 6.11959 8.02302C5.85481 8.61763 5.68959 9.24197 5.38456 9.85994C5.38456 8.39465 5.37185 6.92724 5.39304 5.46195C5.39939 5.0797 5.28077 4.99475 4.91855 5.00112C3.41884 5.02024 1.91912 5.01811 0.419411 5.00325C0.114385 4.999 0 5.04784 0 5.39612C0.0105912 13.126 0.0105912 20.8581 0.00211824 28.588C0.00211824 28.9193 0.0932025 29 0.417293 28.9958C1.881 28.9788 3.34682 28.9703 4.81052 28.9979C5.2723 29.0064 5.42905 28.9151 5.42269 28.4075C5.39516 25.3835 5.40998 22.3574 5.40998 19.3334C5.40998 19.1528 5.40998 18.9723 5.40998 18.7897C5.67476 19.327 5.83575 19.8791 6.04122 20.4143C6.72117 22.2002 7.88409 23.4935 9.78627 23.9862C10.9873 24.2983 12.1947 24.2686 13.3957 23.9628C15.6453 23.3852 16.9735 21.8137 17.6788 19.722C18.8799 16.1543 18.8968 12.5229 17.7445 8.94679ZM12.8747 16.6937C12.3832 18.3926 11.1758 19.3227 9.4304 19.3397C7.64261 19.3567 6.27211 18.3905 5.75949 16.7234C5.50954 15.9122 5.36974 15.0755 5.38668 14.277C5.38245 13.4212 5.5053 12.6397 5.73407 11.8752C6.2128 10.2762 7.6066 9.26108 9.26094 9.31629C9.59351 9.32691 9.92819 9.35664 10.2565 9.41186C11.6546 9.65182 12.4955 10.5055 12.881 11.8455C13.347 13.4616 13.3428 15.0776 12.8747 16.6937Z" fill="black"/>
<path d="M132.809 11.1129C132.216 7.84892 130.467 5.6255 127.156 4.78455C125.12 4.26639 123.112 4.33222 121.106 4.91833C118.539 5.66584 116.736 7.25218 115.726 9.75167C114.662 12.3849 114.537 15.0586 115.215 17.8023C115.916 20.6415 117.666 22.5082 120.375 23.502C122.218 24.1795 124.127 24.2793 126.059 24.0436C129.391 23.6379 131.632 21.8796 132.706 18.6602C132.831 18.2865 132.82 18.1208 132.375 18.0125C131.128 17.7067 129.891 17.3563 128.66 16.9868C128.304 16.8806 128.147 16.8976 128.02 17.2926C127.779 18.0529 127.325 18.6751 126.607 19.0743C124.027 20.512 120.939 19.1253 120.28 16.252C120.183 15.8316 120.219 15.7084 120.685 15.7148C122.625 15.7402 124.567 15.7254 126.508 15.7254C128.501 15.7254 130.496 15.7233 132.49 15.7275C132.727 15.7275 132.917 15.7594 132.939 15.3983C133.013 13.9607 133.068 12.5294 132.809 11.1129ZM127.647 12.6228C126.484 12.6292 125.319 12.627 124.156 12.627C123.01 12.627 121.864 12.6037 120.719 12.6377C120.269 12.6504 120.246 12.4975 120.312 12.1237C120.661 10.1509 121.884 9.05937 123.883 8.94682C124.449 8.91497 125.008 8.92346 125.561 9.05937C126.993 9.41189 128.086 10.8942 128.041 12.3743C128.031 12.7247 127.815 12.6228 127.647 12.6228Z" fill="black"/>
</g>
<defs>
<clipPath id="clip0">
<rect width="133" height="29" fill="white"/>
</clipPath>
</defs>
</svg>
