<svg width="92" height="28" viewBox="0 0 92 28" fill="none" xmlns="http://www.w3.org/2000/svg">
<path d="M16.9006 13.35C18.2006 14.85 18.8506 16.65 18.8506 18.75C18.8506 21.25 17.9506 23.4 16.1506 25.2C14.4506 27 12.3506 27.9 9.85059 27.9C7.35059 27.9 5.20059 27.05 3.40059 25.35C1.70059 23.55 0.850586 21.35 0.850586 18.75C0.850586 11.75 5.00059 5.5 13.3006 0L16.3006 2.55C15.3006 3.45 14.3506 4.65 13.4506 6.15C12.6506 7.55 12.1506 8.9 11.9506 10.2C13.9506 10.7 15.6006 11.75 16.9006 13.35ZM38.7506 13.35C40.0506 14.85 40.7006 16.65 40.7006 18.75C40.7006 21.25 39.8006 23.4 38.0006 25.2C36.2006 27 34.1006 27.9 31.7006 27.9C29.2006 27.9 27.0506 27 25.2506 25.2C23.4506 23.4 22.5506 21.25 22.5506 18.75C22.5506 11.95 26.7506 5.7 35.1506 0L38.3006 2.55C37.3006 3.45 36.3506 4.6 35.4506 6C34.6506 7.4 34.1006 8.8 33.8006 10.2C35.8006 10.7 37.4506 11.75 38.7506 13.35Z" fill="#8B6FFE"/>
<path d="M75.0997 14.5504C73.7997 13.0504 73.1497 11.2504 73.1497 9.15039C73.1497 6.65039 74.0497 4.50039 75.8497 2.70039C77.5497 0.900391 79.6497 0.000388094 82.1497 0.000388312C84.6497 0.000388531 86.7997 0.850387 88.5997 2.55038C90.2997 4.35039 91.1497 6.55039 91.1497 9.15039C91.1497 16.1504 86.9997 22.4004 78.6997 27.9004L75.6997 25.3504C76.6997 24.4504 77.6497 23.2504 78.5497 21.7504C79.3497 20.3504 79.8497 19.0004 80.0497 17.7004C78.0497 17.2004 76.3997 16.1504 75.0997 14.5504ZM53.2497 14.5504C51.9497 13.0504 51.2997 11.2504 51.2997 9.15039C51.2997 6.65038 52.1997 4.50039 53.9997 2.70039C55.7997 0.900389 57.8997 0.000386192 60.2997 0.000386402C62.7997 0.000386621 64.9497 0.90039 66.7497 2.70039C68.5497 4.50039 69.4497 6.65038 69.4497 9.15039C69.4497 15.9504 65.2497 22.2004 56.8497 27.9004L53.6997 25.3504C54.6997 24.4504 55.6497 23.3004 56.5497 21.9004C57.3497 20.5004 57.8997 19.1004 58.1997 17.7004C56.1997 17.2004 54.5497 16.1504 53.2497 14.5504Z" fill="#8B6FFE"/>
</svg>
