<svg width="166" height="32" viewBox="0 0 166 32" fill="none" xmlns="http://www.w3.org/2000/svg">
<path d="M31.125 0.900391H0V31.9004H31.125V0.900391Z" fill="#00B67A"/>
<path d="M64.8438 0.900391H33.7188V31.9004H64.8438V0.900391Z" fill="#00B67A"/>
<path d="M98.5625 0.900391H67.4375V31.9004H98.5625V0.900391Z" fill="#00B67A"/>
<path d="M132.281 0.900391H101.156V31.9004H132.281V0.900391Z" fill="#00B67A"/>
<path d="M166 0.900391H134.875V31.9004H166V0.900391Z" fill="#00B67A"/>
<path d="M15.5627 21.7931L20.2963 20.5983L22.274 26.6692L15.5627 21.7931ZM26.4564 13.9462H18.124L15.5627 6.13165L13.0014 13.9462H4.66895L11.4127 18.79L8.85137 26.6046L15.5951 21.7608L19.7451 18.79L26.4564 13.9462Z" fill="white"/>
<path d="M49.2814 21.7931L54.015 20.5983L55.9928 26.6692L49.2814 21.7931ZM60.1752 13.9462H51.8428L49.2814 6.13165L46.7201 13.9462H38.3877L45.1314 18.79L42.5701 26.6046L49.3139 21.7608L53.4639 18.79L60.1752 13.9462Z" fill="white"/>
<path d="M83.0002 21.7931L87.7338 20.5983L89.7115 26.6692L83.0002 21.7931ZM93.8939 13.9462H85.5615L83.0002 6.13165L80.4389 13.9462H72.1064L78.8502 18.79L76.2889 26.6046L83.0326 21.7608L87.1826 18.79L93.8939 13.9462Z" fill="white"/>
<path d="M116.719 21.7931L121.453 20.5983L123.43 26.6692L116.719 21.7931ZM127.613 13.9462H119.28L116.719 6.13165L114.158 13.9462H105.825L112.569 18.79L110.008 26.6046L116.751 21.7608L120.901 18.79L127.613 13.9462Z" fill="white"/>
<path d="M150.438 21.7931L155.171 20.5983L157.149 26.6692L150.438 21.7931ZM161.331 13.9462H152.999L150.438 6.13165L147.876 13.9462H139.544L146.288 18.79L143.726 26.6046L150.47 21.7608L154.62 18.79L161.331 13.9462Z" fill="white"/>
</svg>
